<?xml version="1.0" encoding="utf-8"?>
<!-- Generator: Adobe Illustrator 26.0.2, SVG Export Plug-In . SVG Version: 6.00 Build 0)  -->
<svg version="1.1" id="圖層_1" xmlns="http://www.w3.org/2000/svg" xmlns:xlink="http://www.w3.org/1999/xlink" x="0px" y="0px"
	 viewBox="0 0 334.8 113.5" style="enable-background:new 0 0 334.8 113.5;" xml:space="preserve">
<style type="text/css">
	.st0{fill:#003F98;}
	
		.st1{clip-path:url(#SVGID_00000096058178702009528980000003806087733981404566_);fill:url(#SVGID_00000024701173179325777830000011448471307624030354_);}
</style>
<g>
	<path class="st0" d="M39.1,85.7h2V75.3h-2V85.7z M30.7,75.3v10.4h7v-1.6h-5v-8.8H30.7z M22.5,75.3v10.4h2v-4.6h4.3v-1.6h-4.3v-2.7
		h4.3v-1.6H22.5z"/>
	<g>
		<path class="st0" d="M241.6,56.7L241.6,56.7L222.9,38c-1.6-1.6-4.2-1.6-5.9,0l-15.8,15.8c-1.6,1.6-1.6,4.2,0,5.9L217,75.5
			c1.6,1.6,4.2,1.6,5.9,0L235,63.4c5.8-6.3,13.1,0,13.1,0C246.7,61.7,244.2,59.3,241.6,56.7"/>
		<g>
			<defs>
				<path id="SVGID_1_" d="M255.5,42.3c-8.3,13.4-18.1,9.1-23.5,4.9l9.5,9.5l0,0c2.6,2.6,5.1,5,6.5,6.7c3.4,3.8,6.4,7.5,9.5,11.2
					c0.2,0.3,0.4,0.5,0.6,0.7c5.5,7.1,14.2,11.6,23.8,11.6c16.7,0,30.2-13.5,30.2-30.2c0-16.7-13.5-30.2-30.2-30.2
					C270.6,26.5,260.7,32.9,255.5,42.3"/>
			</defs>
			<clipPath id="SVGID_00000039135284819584391140000006918389480880492209_">
				<use xlink:href="#SVGID_1_"  style="overflow:visible;"/>
			</clipPath>
			
				<linearGradient id="SVGID_00000047036058447946981660000011752389106111713723_" gradientUnits="userSpaceOnUse" x1="7442.7622" y1="314.3062" x2="7443.96" y2="314.3062" gradientTransform="matrix(-34.4061 25.4592 -25.4592 -34.4061 264364.4375 -178626.0156)">
				<stop  offset="0" style="stop-color:#00DAEE"/>
				<stop  offset="5.384620e-03" style="stop-color:#00DAEE"/>
				<stop  offset="1" style="stop-color:#FFFF5C"/>
			</linearGradient>
			
				<polygon style="clip-path:url(#SVGID_00000039135284819584391140000006918389480880492209_);fill:url(#SVGID_00000047036058447946981660000011752389106111713723_);" points="
				283.9,-11.8 203.2,47.9 260.5,125.3 341.2,65.6 			"/>
		</g>
	</g>
	<path class="st0" d="M164.6,31.9c-0.1,0-0.2,0-0.2-0.1v-2c0-0.3-0.1-0.6-0.4-0.9c-0.3-0.3-0.6-0.4-0.9-0.4h-1
		c-0.3,0-0.6,0.1-0.9,0.4c-0.3,0.3-0.4,0.6-0.4,0.9v2c0,0.1-0.1,0.1-0.2,0.1h-13.2c-0.4,0-0.7,0.1-0.9,0.4c-0.2,0.3-0.4,0.6-0.4,0.9
		v0.5c0,0.3,0.1,0.6,0.4,0.9c0.2,0.3,0.6,0.4,0.9,0.4h7.8c0.1,0,0.1,0,0.1,0.1c-0.7,1.2-1.5,2.5-2.5,3.8c-0.1,0.1-0.1,0.1-0.3,0.1
		h-3.7c-0.4,0-0.7,0.2-0.9,0.4c-0.2,0.3-0.4,0.6-0.3,0.9V41c0,0.4,0.2,0.7,0.4,0.9c0.3,0.2,0.6,0.4,0.9,0.4
		c7.4-0.1,15.5-0.3,24.5-0.7c0.1,0,0.2,0,0.3,0.1c0.5,0.5,1,0.9,1.4,1.4c0.2,0.3,0.6,0.4,0.9,0.5c0.1,0,0.1,0,0.2,0
		c0.3,0,0.6-0.1,0.8-0.3l0.9-0.6c0.3-0.2,0.5-0.5,0.5-0.8c0-0.3-0.1-0.6-0.3-0.9c-1.9-1.8-4.4-3.8-7.6-6c0,0,0,0,0-0.1c0,0,0,0,0,0
		h7.4c0.4,0,0.7-0.1,0.9-0.4c0.2-0.3,0.4-0.6,0.4-0.9v-0.5c0-0.4-0.1-0.7-0.4-0.9c-0.2-0.3-0.6-0.4-0.9-0.4H164.6z M168,35.6
		c-0.3,0.2-0.4,0.4-0.4,0.7c0,0.3,0.1,0.6,0.4,0.8c0.8,0.6,1.5,1.1,2.1,1.6c0,0,0,0,0,0c0,0,0,0-0.1,0c-0.5,0-2.5,0.1-5.8,0.1
		c-3.3,0.1-5.8,0.1-7.4,0.1c0,0-0.1,0-0.1-0.1c0,0,0-0.1,0-0.1c1.1-1.3,2.1-2.6,3-3.7c0.1-0.1,0.2-0.1,0.3-0.1h8.7c0,0,0,0,0.1,0
		c0,0,0,0,0,0L168,35.6z M152.6,44.3c-0.3,0-0.6,0.1-0.9,0.4c-0.3,0.3-0.4,0.6-0.4,0.9V62c0,0.4,0.1,0.7,0.4,0.9
		c0.3,0.3,0.6,0.4,0.9,0.4h0.9c0.3,0,0.6-0.1,0.9-0.4c0.3-0.3,0.4-0.6,0.4-0.9v-4.6c0-0.1,0.1-0.2,0.2-0.2h15.5
		c0.1,0,0.1,0.1,0.1,0.2v2.4c0,0.3-0.1,0.5-0.2,0.6c-0.1,0.1-0.4,0.1-0.7,0.1c-0.4,0-1,0-1.7,0h-1.9c-0.3,0-0.5,0.1-0.7,0.3
		c-0.2,0.2-0.2,0.5-0.1,0.8c0,0.1,0.1,0.3,0.1,0.4c0.1,0.4,0.3,0.7,0.6,0.9c0.3,0.2,0.7,0.4,1.1,0.4c2.5,0,4.2-0.2,5.1-0.5
		c0.7-0.2,1.1-0.6,1.4-1c0.3-0.5,0.4-1.1,0.4-2V45.6c0-0.3-0.1-0.6-0.4-0.9c-0.2-0.3-0.6-0.4-0.9-0.4H152.6z M170.6,49.5
		c0,0.1-0.1,0.1-0.1,0.1H155c-0.1,0-0.2,0-0.2-0.1v-2.1c0-0.1,0.1-0.1,0.2-0.1h15.5c0.1,0,0.1,0,0.1,0.1V49.5z M154.8,52.3
		c0-0.1,0.1-0.1,0.2-0.1h15.5c0.1,0,0.1,0.1,0.1,0.1v2.1c0,0.1-0.1,0.1-0.1,0.1H155c-0.1,0-0.2,0-0.2-0.1V52.3z M139.1,36.7
		c0-0.4-0.1-0.7-0.4-0.9c-0.3-0.3-0.6-0.4-0.9-0.4h-9.2c-0.1,0-0.2,0-0.1-0.1c0.4-1.7,0.8-3.3,1.1-4.9c0.1-0.3,0-0.7-0.2-1
		c-0.2-0.3-0.5-0.5-0.9-0.6l-1-0.1c-0.3-0.1-0.7,0-1,0.2c-0.3,0.2-0.5,0.5-0.6,0.9c-0.8,4.4-1.9,8.1-3.4,11.3c0,0,0,0-0.1,0
		c0,0,0,0,0-0.1v-1.3c0-0.4-0.1-0.7-0.4-0.9c-0.3-0.3-0.6-0.4-0.9-0.4h-1.6c-0.1,0-0.1,0-0.1-0.1c1.4-2.1,2.6-4.4,3.7-6.7
		c0.1-0.3,0.1-0.6,0-1c-0.1-0.3-0.4-0.5-0.7-0.6l-0.7-0.2c-0.3-0.1-0.7-0.1-1,0.1c-0.3,0.2-0.6,0.4-0.7,0.8c-0.6,1.4-1.2,2.7-2,4
		c0,0,0,0-0.1,0c0,0,0,0,0-0.1v-1c0-0.4-0.1-0.7-0.4-0.9c-0.3-0.3-0.6-0.4-0.9-0.4h-2.8c-0.1,0-0.1,0-0.1-0.1v-2.3
		c0-0.3-0.1-0.6-0.4-0.9c-0.3-0.3-0.6-0.4-0.9-0.4h-0.6c-0.3,0-0.6,0.1-0.9,0.4c-0.3,0.3-0.4,0.6-0.4,0.9V32c0,0.1-0.1,0.1-0.2,0.1
		h-3.2c-0.3,0-0.6,0.1-0.9,0.4c-0.3,0.3-0.4,0.6-0.4,0.9v0.4c0,0.3,0.1,0.6,0.4,0.9c0.3,0.3,0.6,0.4,0.9,0.4h3.2
		c0.1,0,0.2,0.1,0.2,0.2v2.9c0,0.1-0.1,0.1-0.2,0.1h-4.6c-0.4,0-0.7,0.1-0.9,0.4c-0.3,0.3-0.4,0.6-0.4,0.9v0.4
		c0,0.3,0.1,0.6,0.4,0.9c0.3,0.3,0.6,0.4,0.9,0.4h7.1c0,0,0,0,0.1,0c0,0,0,0.1,0,0.1c-0.7,0.8-1.5,1.5-2.3,2.2
		c-0.1,0.1-0.2,0.1-0.3,0.1h-1.5c-0.4,0-0.7,0.1-0.9,0.4c-0.3,0.2-0.4,0.6-0.4,0.9V46c0,0.1,0,0.2-0.1,0.3c-0.8,0.5-1.7,1.1-2.6,1.6
		c-0.3,0.2-0.5,0.5-0.5,0.9c0,0.2,0.1,0.5,0.3,0.7c0.2,0.2,0.4,0.5,0.6,0.7c0.3,0.3,0.6,0.5,0.9,0.6c0.4,0.1,0.7,0,1-0.2
		c1.8-1.1,3.5-2.4,5.1-3.7c0.1-0.1,0.2-0.1,0.3-0.1h3.3c0,0,0,0,0.1,0.1c0,0,0,0.1,0,0.1c-0.8,0.9-1.6,1.6-2.3,2.2
		c-0.1,0.1-0.2,0.1-0.3,0.1c-0.3,0-0.6,0.1-0.9,0.4c-0.2,0.2-0.4,0.5-0.4,0.9v1.8c0,0.1-0.1,0.2-0.2,0.2c-1.3,0.1-3.4,0.3-6.4,0.6
		c-0.3,0-0.6,0.2-0.9,0.5c-0.2,0.3-0.3,0.6-0.3,1l0,0.5c0,0.4,0.2,0.7,0.5,0.9c0.3,0.2,0.6,0.3,1,0.3c3.8-0.4,5.8-0.6,6-0.6
		c0.1,0,0.1,0.1,0.1,0.1v4.2c0,0.2,0,0.3-0.1,0.4c-0.1,0.1-0.3,0.1-0.5,0.1h-2.4c-0.3,0-0.6,0.1-0.7,0.4c-0.2,0.3-0.2,0.5-0.1,0.8
		c0.1,0.2,0.1,0.4,0.2,0.6c0.1,0.4,0.3,0.7,0.6,0.9c0.3,0.2,0.6,0.4,1,0.4h0c1.8-0.1,3.1-0.2,3.9-0.5c0.6-0.2,1-0.6,1.2-1
		c0.2-0.4,0.3-1.1,0.3-2v-4.6c0-0.1,0-0.2,0.1-0.2c0.7-0.1,1.8-0.2,3.2-0.3c1.4-0.1,2.3-0.2,2.7-0.3c0.4-0.1,0.7-0.2,0.9-0.5
		c0.3-0.3,0.4-0.6,0.4-1v-0.4c0-0.4-0.1-0.7-0.4-0.9c-0.3-0.2-0.6-0.3-0.9-0.3l-5.9,0.5c-0.1,0-0.1,0-0.1-0.1v-0.9
		c0-0.1,0-0.2,0.1-0.3c2.1-1.6,3.9-3.3,5.3-5c0-0.1,0.1-0.1,0.2,0c0.4,0.3,0.8,0.7,1.1,1c0.2,0.2,0.5,0.3,0.9,0.3
		c0.3,0,0.6-0.2,0.8-0.4c0.5-0.7,1-1.5,1.4-2.4c0,0,0,0,0.1,0c0,0,0,0,0,0c0.8,3.4,1.8,6.4,2.9,8.9c0,0.1,0,0.2,0,0.3
		c-1.8,2.7-4.3,4.8-7.3,6.4c-0.3,0.2-0.5,0.4-0.6,0.7c-0.1,0.3,0,0.6,0.2,0.9c0.2,0.3,0.4,0.7,0.6,1c0.2,0.3,0.5,0.5,0.8,0.6
		c0.3,0.1,0.7,0.1,1-0.1c2.9-1.6,5.3-3.6,7.2-6c0-0.1,0.1-0.1,0.2,0c1.6,2.4,3.4,4.4,5.6,5.9c0.3,0.2,0.6,0.3,1,0.2
		c0.3-0.1,0.6-0.3,0.9-0.6c0.3-0.3,0.5-0.7,0.8-1c0.2-0.2,0.3-0.5,0.3-0.9c0-0.3-0.2-0.6-0.5-0.7c-2.2-1.4-4.2-3.5-5.8-6.2
		c-0.1-0.1-0.1-0.2,0-0.3c2-3.6,3.4-8.4,4.3-14.3c0-0.1,0.1-0.2,0.2-0.2h0.9c0.3,0,0.6-0.1,0.9-0.4c0.3-0.2,0.4-0.6,0.4-0.9V36.7z
		 M113.7,35.3c0-0.1,0-0.2,0.1-0.2h3.7c0.1,0,0.1,0,0.1,0.1c-0.6,1-1.2,2-2,3c-0.1,0.1-0.2,0.1-0.3,0.1h-1.5c-0.1,0-0.1,0-0.1-0.1
		V35.3z M115.3,43.9C115.3,43.9,115.3,43.8,115.3,43.9c-0.1-0.1-0.1-0.1,0-0.1c0.6-0.7,1.2-1.4,1.8-2.1c0.1-0.1,0.2-0.1,0.3-0.1h4.9
		c0.1,0,0.1,0.1,0.1,0.1c-0.6,1.2-1.2,2.2-1.8,3c-0.1,0.1-0.1,0.1-0.2,0l-0.8-0.6c-0.3-0.2-0.7-0.3-1-0.2c-0.1,0-0.1,0-0.1,0H115.3z
		 M130.4,49.1C130.4,49.1,130.4,49.2,130.4,49.1c-0.1,0-0.1,0-0.1,0c-1.2-2.9-2.1-6.4-2.8-10.3c0-0.1,0-0.2,0.1-0.2h5.3
		c0.1,0,0.1,0.1,0.1,0.2C132.5,42.8,131.6,46.3,130.4,49.1 M91.7,50.5c-0.4,0-0.7,0.1-0.9,0.4c-0.3,0.3-0.4,0.6-0.4,0.9v0.3
		c0,0.1-0.1,0.2-0.1,0.2H80c-0.3,0-0.6,0.1-0.9,0.4c-0.3,0.3-0.4,0.6-0.4,0.9v0.1c0,0.1-0.1,0.2-0.2,0.2h-5.7
		c-0.1,0-0.1-0.1-0.1-0.2v-2.3c0-0.1,0-0.2,0.1-0.2h3.8c0.4,0,0.7-0.1,0.9-0.4c0.2-0.3,0.4-0.6,0.4-0.9V39.2c0-0.3-0.1-0.6-0.4-0.9
		c-0.2-0.3-0.6-0.4-0.9-0.4h-3.8c-0.1,0-0.1-0.1-0.1-0.2v-2.1c0-0.1,0-0.2,0.1-0.2H77c0.4,0,0.7-0.1,0.9-0.4
		c0.3-0.3,0.4-0.6,0.4-0.9v-0.4c0-0.4-0.1-0.7-0.4-0.9c-0.3-0.3-0.6-0.4-0.9-0.4h-4.2c-0.1,0-0.1,0-0.1-0.1v-2.4
		c0-0.3-0.1-0.6-0.4-0.9c-0.3-0.3-0.6-0.4-0.9-0.4h-0.5c-0.3,0-0.6,0.1-0.9,0.4c-0.3,0.3-0.4,0.6-0.4,0.9v2.4c0,0.1-0.1,0.1-0.2,0.1
		H65c-0.4,0-0.7,0.1-0.9,0.4c-0.3,0.3-0.4,0.6-0.4,0.9v0.4c0,0.3,0.1,0.6,0.4,0.9c0.3,0.3,0.6,0.4,0.9,0.4h4.4
		c0.1,0,0.2,0.1,0.2,0.2v2.1c0,0.1-0.1,0.2-0.2,0.2h-3.6c-0.3,0-0.6,0.1-0.9,0.4c-0.3,0.3-0.4,0.6-0.4,0.9v10.7
		c0,0.3,0.1,0.6,0.4,0.9c0.3,0.3,0.6,0.4,0.9,0.4h3.6c0.1,0,0.2,0.1,0.2,0.2v2.3c0,0.1-0.1,0.2-0.2,0.2h-4.9c-0.3,0-0.6,0.1-0.9,0.4
		c-0.3,0.3-0.4,0.6-0.4,0.9v0.5c0,0.4,0.1,0.7,0.4,0.9c0.3,0.3,0.6,0.4,0.9,0.4h4.9c0.1,0,0.2,0.1,0.2,0.1V62c0,0.4,0.1,0.7,0.4,0.9
		c0.3,0.3,0.6,0.4,0.9,0.4h0.5c0.4,0,0.7-0.1,0.9-0.4c0.3-0.3,0.4-0.6,0.4-0.9v-4.8c0-0.1,0-0.1,0.1-0.1h4.7c0.4,0,0.7-0.1,0.9-0.4
		c0.3-0.3,0.4-0.6,0.4-0.9v-0.6c0-0.1,0-0.1,0.1-0.1h3.8c0,0,0,0,0,0V55l-1,0.6c-0.3,0.1-0.5,0.4-0.5,0.7c0,0.3,0.1,0.6,0.3,0.9
		c0.7,0.8,1.3,1.6,1.9,2.5c0.2,0.3,0.5,0.5,0.8,0.6c0.3,0.1,0.6,0,0.9-0.2l0.4-0.2c0.3-0.2,0.5-0.5,0.6-0.9c0.1-0.3,0-0.7-0.2-1
		c-0.7-1.1-1.6-2.1-2.6-3c0,0,0,0,0-0.1c0,0,0,0,0.1,0h6.7c0.1,0,0.1,0,0.1,0.1v4.9c0,0.2-0.1,0.3-0.1,0.4c-0.1,0.1-0.3,0.1-0.5,0.2
		c-1,0-1.9,0-2.7,0c-0.3,0-0.5,0.1-0.7,0.4c-0.2,0.2-0.2,0.5-0.1,0.8c0.1,0.1,0.1,0.3,0.1,0.4c0.1,0.4,0.4,0.7,0.7,0.9
		c0.3,0.2,0.6,0.4,1,0.4c2,0,3.4-0.2,4.2-0.5c0.6-0.2,1-0.5,1.2-1c0.2-0.4,0.3-1,0.3-1.9v-5c0-0.1,0.1-0.1,0.2-0.1h3
		c0.3,0,0.6-0.1,0.9-0.4c0.3-0.3,0.4-0.6,0.4-0.9v-0.1c0-0.3-0.1-0.6-0.4-0.9c-0.3-0.3-0.6-0.4-0.9-0.4h-3c-0.1,0-0.2-0.1-0.2-0.2
		v-0.3c0-0.3-0.1-0.6-0.4-0.9c-0.3-0.3-0.6-0.4-0.9-0.4H91.7z M72.5,48.6c-0.1,0-0.1-0.1-0.1-0.2v-2.6c0-0.1,0-0.1,0.1-0.1h2.7
		c0.1,0,0.2,0,0.2,0.1v2.6c0,0.1-0.1,0.2-0.2,0.2H72.5z M72.5,43.2c-0.1,0-0.1,0-0.1-0.1v-2.5c0-0.1,0-0.2,0.1-0.2h2.7
		c0.1,0,0.2,0.1,0.2,0.2v2.5c0,0.1-0.1,0.1-0.2,0.1H72.5z M69.8,40.4c0.1,0,0.1,0.1,0.1,0.2v2.5c0,0.1-0.1,0.1-0.1,0.1h-2.6
		c-0.1,0-0.2,0-0.2-0.1v-2.5c0-0.1,0.1-0.2,0.2-0.2H69.8z M69.8,45.7c0.1,0,0.1,0,0.1,0.1v2.6c0,0.1-0.1,0.2-0.1,0.2h-2.6
		c-0.1,0-0.2-0.1-0.2-0.2v-2.6c0-0.1,0.1-0.1,0.2-0.1H69.8z M94.7,49.9c0.1,0,0.2,0,0.3,0.1c0,0.1,0.1,0.1,0.1,0.2
		c0.2,0.3,0.5,0.5,0.8,0.6c0.3,0.1,0.7,0.1,1-0.1l0.2-0.1c0.3-0.2,0.5-0.4,0.6-0.8c0.1-0.3,0-0.7-0.2-1c-0.8-1.1-1.7-2.2-2.8-3.3
		c0,0,0,0,0-0.1c0,0,0,0,0.1,0h0.7c0.3,0,0.6-0.1,0.9-0.4c0.3-0.3,0.4-0.6,0.4-0.9v-7.3c0-0.4-0.1-0.7-0.4-0.9
		c-0.3-0.3-0.6-0.4-0.9-0.4h-5.6c-0.1,0-0.1,0-0.1-0.1v-1.4c0-0.1,0-0.2,0.1-0.2h6.4c0.4,0,0.7-0.1,0.9-0.4c0.3-0.3,0.4-0.6,0.4-0.9
		v0c0-0.4-0.1-0.7-0.4-0.9c-0.3-0.2-0.6-0.4-0.9-0.4h-6.4c-0.1,0-0.1-0.1-0.1-0.2v-1.2c0-0.3-0.1-0.6-0.4-0.9
		c-0.3-0.3-0.6-0.4-0.9-0.4H88c-0.3,0-0.6,0.1-0.9,0.4c-0.3,0.3-0.4,0.6-0.4,0.9v1.2c0,0.1-0.1,0.2-0.2,0.2h-6
		c-0.4,0-0.7,0.1-0.9,0.4c-0.3,0.2-0.4,0.6-0.4,0.9v0c0,0.3,0.1,0.6,0.4,0.9c0.3,0.3,0.6,0.4,0.9,0.4h6c0.1,0,0.2,0.1,0.2,0.2v1.4
		c0,0.1-0.1,0.1-0.2,0.1h-5.3c-0.4,0-0.7,0.1-0.9,0.4c-0.2,0.3-0.4,0.6-0.4,0.9v7.3c0,0.4,0.1,0.7,0.4,0.9c0.2,0.3,0.6,0.4,0.9,0.4
		h5.3c0.1,0,0.2,0.1,0.2,0.1v1.9c0,0.1-0.1,0.1-0.2,0.1c-2.7,0-4.8,0.1-6.5,0.1c-0.3,0-0.6,0.2-0.9,0.4c-0.2,0.3-0.3,0.6-0.3,0.9
		c0,0.4,0.2,0.7,0.4,0.9c0.3,0.2,0.6,0.4,1,0.4C80.9,50.3,85.7,50.2,94.7,49.9 M89.9,43.4c-0.1,0-0.1,0-0.1-0.1v-1.6
		c0-0.1,0-0.2,0.1-0.2h3.8c0.1,0,0.1,0.1,0.1,0.2v1.6c0,0.1,0,0.1-0.1,0.1H89.9z M93.8,39.3c0,0.1,0,0.2-0.1,0.2h-3.8
		c-0.1,0-0.1-0.1-0.1-0.2v-1.6c0-0.1,0-0.1,0.1-0.1h3.8c0.1,0,0.1,0.1,0.1,0.1V39.3z M86.5,37.6c0.1,0,0.2,0.1,0.2,0.1v1.6
		c0,0.1-0.1,0.2-0.2,0.2h-3.6c-0.1,0-0.2-0.1-0.2-0.2v-1.6c0-0.1,0.1-0.1,0.2-0.1H86.5z M82.7,41.6c0-0.1,0.1-0.2,0.2-0.2h3.6
		c0.1,0,0.2,0.1,0.2,0.2v1.6c0,0.1-0.1,0.1-0.2,0.1h-3.6c-0.1,0-0.2,0-0.2-0.1V41.6z M92.8,45.5L92.8,45.5c-0.3,0.2-0.4,0.4-0.5,0.7
		c-0.1,0.3,0,0.6,0.2,0.8c0.1,0.1,0.2,0.2,0.3,0.4c0.1,0.1,0,0.1-0.1,0.1l-3,0c-0.1,0-0.1-0.1-0.1-0.2v-1.7c0-0.1,0-0.1,0.1-0.1
		H92.8z M51.1,37.6c-0.1-0.3-0.3-0.6-0.6-0.7c-0.2-0.1-0.4-0.1-0.7-0.1c-0.1,0-0.2,0-0.3,0c-0.3,0-0.6,0.2-0.7,0.5
		c-0.1,0.2-0.1,0.3-0.1,0.5c0,0.1,0,0.2,0.1,0.3c0.6,1.9,1.1,3.6,1.5,5.1c0.1,0.3,0.3,0.6,0.6,0.7c0.2,0.1,0.4,0.2,0.6,0.2
		c0.1,0,0.2,0,0.3,0c0.3-0.1,0.6-0.3,0.8-0.6c0.1-0.2,0.2-0.4,0.2-0.6c0-0.1,0-0.2,0-0.3C52.2,41,51.7,39.3,51.1,37.6 M49.8,30.2
		c-0.4,0-0.7,0.1-0.9,0.4c-0.2,0.3-0.4,0.6-0.4,0.9v0.4c0,0.4,0.1,0.7,0.4,0.9c0.2,0.3,0.6,0.4,0.9,0.4H53c0.1,0,0.2,0.1,0.2,0.1
		v12.8c0,0.1-0.1,0.2-0.1,0.3c-1.2,1.3-2.6,2.8-4.3,4.4c-0.3,0.3-0.4,0.6-0.4,1c0,0.1,0,0.1,0,0.2c0,0.3,0.1,0.6,0.3,0.9l0.1,0.1
		c0.2,0.3,0.4,0.5,0.8,0.5c0.3,0,0.6-0.1,0.9-0.3c0.9-0.9,1.8-1.9,2.8-3c0,0,0,0,0.1,0c0,0,0.1,0,0.1,0.1v9.2c0,0.2-0.1,0.4-0.1,0.5
		c-0.1,0.1-0.3,0.1-0.5,0.1c-0.2,0-0.6,0-1,0c-0.3,0-0.7,0-1.1,0c-0.3,0-0.6,0.1-0.7,0.4c-0.2,0.2-0.2,0.5-0.1,0.8
		c0.1,0.2,0.1,0.4,0.2,0.6c0.1,0.4,0.3,0.7,0.6,0.9c0.3,0.2,0.6,0.3,1,0.3h0c1.6,0,2.7-0.3,3.4-0.6c0.5-0.2,0.8-0.6,1-1.1
		c0.2-0.5,0.3-1.1,0.3-1.9V31.5c0-0.3-0.1-0.6-0.4-0.9c-0.2-0.3-0.6-0.4-0.9-0.4H49.8z M41.7,43.4c0.1,0.3,0.3,0.6,0.6,0.8
		c0.3,0.2,0.6,0.2,0.9,0.1c0.3-0.1,0.6-0.3,0.8-0.7c0.2-0.3,0.2-0.7,0.1-1c-0.4-1.6-1-3.2-1.7-5c-0.1-0.3-0.3-0.5-0.6-0.7
		c-0.3-0.1-0.6-0.2-0.9-0.1c-0.3,0.1-0.5,0.3-0.7,0.6c-0.1,0.1-0.1,0.3-0.1,0.5c0,0.1,0,0.2,0.1,0.4C40.8,40,41.3,41.7,41.7,43.4
		 M41.3,30.1c-0.4,0-0.7,0.1-0.9,0.4c-0.3,0.3-0.4,0.6-0.4,0.9v0.3c0,0.4,0.1,0.7,0.4,0.9c0.3,0.3,0.6,0.4,0.9,0.4h3.3
		c0.1,0,0.1,0.1,0.1,0.1v12.9c0,0.1,0,0.2-0.1,0.3c-1.6,1.8-3.1,3.4-4.5,4.9c-0.3,0.3-0.4,0.6-0.5,1v0.2c0,0.3,0.1,0.6,0.3,0.9
		l0.1,0.2c0.2,0.3,0.4,0.5,0.8,0.5c0.3,0,0.6-0.1,0.8-0.3c1.3-1.4,2.3-2.5,3-3.3c0,0,0,0,0.1,0c0,0,0,0,0,0.1v9.1
		c0,0.2,0,0.4-0.1,0.5c-0.1,0.1-0.2,0.1-0.5,0.1c-0.2,0-0.5,0-0.9,0c-0.3,0-0.6,0-1,0c-0.3,0-0.5,0.1-0.7,0.4
		c-0.2,0.2-0.2,0.5-0.1,0.8c0,0.1,0.1,0.3,0.1,0.5c0.1,0.4,0.3,0.7,0.6,0.9c0.3,0.2,0.6,0.4,1,0.3c1.5,0,2.5-0.2,3.1-0.6
		c0.5-0.2,0.8-0.6,1-1c0.2-0.5,0.3-1.1,0.3-1.9V31.4c0-0.3-0.1-0.6-0.4-0.9c-0.3-0.3-0.6-0.4-0.9-0.4H41.3z M31.4,47.6
		c0.4,0,0.7-0.1,0.9-0.4c0.3-0.3,0.4-0.6,0.4-0.9v-3.6c0-0.1,0-0.1,0.1,0c1.5,1.2,2.8,2.4,3.8,3.4c0.2,0.2,0.5,0.3,0.9,0.3
		c0.3,0,0.6-0.2,0.8-0.4l0.4-0.6c0.2-0.3,0.3-0.7,0.2-1c-0.1-0.4-0.3-0.7-0.6-0.9c-1.6-1.2-3.2-2.3-4.8-3.3c0,0,0,0,0-0.1
		c0,0,0,0,0.1,0h4c0.4,0,0.7-0.1,0.9-0.4c0.3-0.3,0.4-0.6,0.4-0.9v0c0-0.4-0.1-0.7-0.4-0.9c-0.3-0.2-0.6-0.4-0.9-0.4h-1.1
		c-0.1,0-0.1-0.1-0.1-0.2c0.3-0.5,0.7-1.4,1.3-2.7c0.1-0.3,0.1-0.6,0-0.9c-0.1-0.3-0.4-0.5-0.7-0.6l-0.1,0c-0.3-0.1-0.7-0.1-1,0.1
		c-0.3,0.2-0.5,0.4-0.6,0.8c-0.4,1.3-0.9,2.5-1.4,3.5c-0.1,0.1-0.1,0.2-0.2,0.2h-0.7c-0.1,0-0.1-0.1-0.1-0.2v-5c0-0.1,0-0.2,0.1-0.2
		c1.8-0.2,3.3-0.5,4.7-0.7c0.3,0,0.5-0.2,0.6-0.5c0.1-0.3,0.1-0.6-0.1-0.8l-0.2-0.3c-0.4-0.5-1-0.8-1.6-0.8c-0.1,0-0.3,0-0.5,0
		c-3.1,0.6-7,1.1-11.8,1.4c-0.3,0-0.6,0.2-0.7,0.4c-0.1,0.2-0.2,0.5-0.1,0.8c0.1,0.3,0.3,0.6,0.6,0.9c0.3,0.2,0.6,0.3,0.9,0.3
		c1.5-0.1,3.1-0.2,4.9-0.3c0.1,0,0.2,0,0.2,0.1v4.7c0,0.1-0.1,0.2-0.2,0.2h-3.3c0,0,0,0,0,0c0,0,0,0,0,0l0.6-0.1
		c0.3-0.1,0.6-0.3,0.8-0.7c0.2-0.3,0.2-0.7,0.1-1c-0.2-0.5-0.4-1-0.6-1.4c-0.1-0.3-0.3-0.6-0.7-0.7c-0.3-0.2-0.7-0.2-1-0.1
		c-0.3,0.1-0.5,0.3-0.7,0.5c-0.1,0.3-0.2,0.6-0.1,0.9c0.3,0.9,0.6,1.7,0.9,2.6c0,0.1,0,0.2-0.1,0.2h-1.5c-0.4,0-0.7,0.1-0.9,0.4
		c-0.3,0.2-0.4,0.6-0.4,0.9v0c0,0.3,0.1,0.6,0.4,0.9c0.3,0.3,0.6,0.4,0.9,0.4h4.4c0.1,0,0.1,0.1,0.1,0.1c-1.5,2-3.3,3.7-5.3,5
		c-0.3,0.2-0.5,0.5-0.6,0.9c0,0.1,0,0.2,0,0.4c0,0.2,0,0.4,0.1,0.6c0.2,0.5,0.5,1.1,0.7,1.7c0.1,0.2,0.2,0.3,0.4,0.1c0,0,0,0,0,0v13
		c0,0.4,0.1,0.7,0.4,0.9c0.3,0.3,0.6,0.4,0.9,0.4h0.1c0.4,0,0.7-0.1,0.9-0.4c0.3-0.3,0.4-0.6,0.4-0.9v-0.5c0-0.1,0-0.1,0.1-0.1h9
		c0.1,0,0.2,0,0.2,0.1v0c0,0.4,0.1,0.7,0.4,0.9c0.2,0.3,0.6,0.4,0.9,0.4h0.1c0.4,0,0.7-0.1,0.9-0.4c0.2-0.3,0.4-0.6,0.4-0.9V49.5
		c0-0.4-0.1-0.7-0.4-0.9c-0.2-0.3-0.6-0.4-0.9-0.4H24.8c0,0,0,0-0.1,0c0,0,0,0,0-0.1c1.7-1.4,3.3-3.2,4.9-5.4h0.1c0,0,0,0,0,0v3.6
		c0,0.4,0.1,0.7,0.4,0.9c0.3,0.3,0.6,0.4,0.9,0.4H31.4z M29.8,55.8c0.1,0,0.2,0.1,0.2,0.2v2.4c0,0.1-0.1,0.2-0.2,0.2h-3.2
		c-0.1,0-0.1-0.1-0.1-0.2V56c0-0.1,0-0.2,0.1-0.2H29.8z M32.5,56c0-0.1,0.1-0.2,0.2-0.2h2.9c0.1,0,0.2,0.1,0.2,0.2v2.4
		c0,0.1-0.1,0.2-0.2,0.2h-2.9c-0.1,0-0.2-0.1-0.2-0.2V56z M32.7,53.5c-0.1,0-0.2-0.1-0.2-0.2v-2.2c0-0.1,0.1-0.2,0.2-0.2h2.9
		c0.1,0,0.2,0.1,0.2,0.2v2.2c0,0.1-0.1,0.2-0.2,0.2H32.7z M30,53.3c0,0.1-0.1,0.2-0.2,0.2h-3.2c-0.1,0-0.1-0.1-0.1-0.2v-2.2
		c0-0.1,0-0.2,0.1-0.2h3.2c0.1,0,0.2,0.1,0.2,0.2V53.3z"/>
	<path class="st0" d="M169.3,75.3v10.4h2v-7.4l6.2,7.4h1.7V75.3h-2v7.2l-6.2-7.2H169.3z M158.5,78.6c0.3-0.5,0.7-1,1.3-1.3
		c0.6-0.3,1.2-0.5,1.9-0.5c0.7,0,1.3,0.2,1.9,0.5c0.6,0.3,1,0.7,1.3,1.3c0.3,0.6,0.5,1.2,0.5,1.9c0,1.1-0.3,1.9-1,2.6
		c-0.7,0.7-1.6,1-2.6,1c-0.7,0-1.3-0.2-1.9-0.5c-0.6-0.3-1-0.7-1.3-1.3c-0.3-0.6-0.5-1.2-0.5-1.9C158,79.8,158.2,79.2,158.5,78.6
		 M158.7,75.9c-0.9,0.5-1.5,1.1-2,2c-0.5,0.8-0.7,1.7-0.7,2.7c0,1,0.2,1.9,0.7,2.7c0.5,0.8,1.2,1.5,2.1,1.9c0.9,0.5,1.9,0.7,2.9,0.7
		c1.1,0,2.1-0.2,2.9-0.7c0.9-0.5,1.6-1.1,2.1-1.9c0.5-0.8,0.7-1.7,0.7-2.7c0-1-0.3-1.9-0.8-2.7c-0.5-0.8-1.2-1.5-2.1-1.9
		c-0.9-0.4-1.8-0.7-2.9-0.7C160.6,75.2,159.6,75.4,158.7,75.9 M152,85.7h2V75.3h-2V85.7z M141.1,75.3v1.6h3.7v8.8h2v-8.8h3.7v-1.6
		H141.1z M136.3,77.5l1.8,4.1h-3.4L136.3,77.5z M135.2,75.3l-4.3,10.4h2.1l1-2.5h4.6l1.1,2.5h2.1l-4.6-10.4H135.2z M123.4,75.8
		c-0.9,0.5-1.6,1.1-2.1,1.9c-0.5,0.8-0.8,1.8-0.8,2.8c0,1,0.2,1.9,0.7,2.7c0.5,0.8,1.2,1.4,2,1.9c0.9,0.4,1.8,0.7,2.9,0.7
		c0.8,0,1.4-0.1,2-0.2c0.6-0.1,1.2-0.4,1.9-0.8V83c-0.8,0.4-1.4,0.7-2,0.9c-0.5,0.2-1.1,0.2-1.6,0.2c-0.7,0-1.4-0.1-2-0.4
		c-0.6-0.3-1.1-0.7-1.4-1.3c-0.3-0.5-0.5-1.2-0.5-1.9c0-0.7,0.2-1.3,0.5-1.9c0.3-0.6,0.8-1,1.4-1.3c0.6-0.3,1.3-0.5,2-0.5
		c0.6,0,1.2,0.1,1.7,0.2c0.5,0.2,1.1,0.4,1.8,0.8v-1.9c-0.7-0.3-1.3-0.5-1.8-0.7c-0.6-0.1-1.1-0.2-1.7-0.2
		C125.3,75.2,124.3,75.4,123.4,75.8 M109.3,75.3v6.2c0,0.9,0.2,1.6,0.6,2.3c0.4,0.6,0.9,1.1,1.6,1.5c0.7,0.3,1.5,0.5,2.5,0.5
		c1.5,0,2.7-0.4,3.6-1.1c0.8-0.8,1.3-1.8,1.3-3.2v-6.2h-2v5.9c0,0.7-0.1,1.2-0.3,1.6c-0.2,0.4-0.5,0.7-0.9,0.9
		c-0.4,0.2-1,0.3-1.6,0.3c-0.6,0-1.1-0.1-1.5-0.4c-0.4-0.2-0.7-0.5-0.9-0.9c-0.2-0.4-0.3-0.9-0.3-1.5v-6H109.3z M99.6,84.1v-7.2h2.1
		c1.1,0,2.1,0.3,2.7,1c0.7,0.7,1,1.5,1,2.7c0,1.1-0.3,2-1,2.6c-0.7,0.7-1.6,1-2.7,1H99.6z M97.6,75.3v10.4h4.2c1.1,0,2.1-0.2,3-0.6
		c0.9-0.4,1.5-1,2-1.8c0.5-0.8,0.7-1.7,0.7-2.7c0-1-0.2-1.9-0.7-2.7c-0.5-0.8-1.1-1.4-2-1.9c-0.8-0.4-1.8-0.7-2.9-0.7H97.6z
		 M88.9,75.3v10.4h6.8v-1.6h-4.8v-3h4.5v-1.6h-4.5v-2.7h4.7v-1.6H88.9z"/>
	<path class="st0" d="M45.5,79.8v-2.9h1.4c1.2,0,1.8,0.5,1.8,1.4c0,0.5-0.1,0.8-0.4,1.1c-0.3,0.2-0.7,0.4-1.3,0.4H45.5z M43.5,75.3
		v10.4h2v-4.4h1.9c1,0,1.8-0.3,2.4-0.8c0.6-0.6,0.9-1.3,0.9-2.2c0-0.9-0.3-1.6-0.9-2.2c-0.6-0.6-1.4-0.8-2.4-0.8H43.5z"/>
	<path class="st0" d="M54.2,79.8v-2.9h1.4c1.2,0,1.8,0.5,1.8,1.4c0,0.5-0.1,0.8-0.4,1.1c-0.3,0.2-0.7,0.4-1.3,0.4H54.2z M52.2,75.3
		v10.4h2v-4.4h1.9c1,0,1.8-0.3,2.4-0.8c0.6-0.6,0.9-1.3,0.9-2.2c0-0.9-0.3-1.6-0.9-2.2c-0.6-0.6-1.4-0.8-2.4-0.8H52.2z"/>
	<path class="st0" d="M71.7,84.1v-7.2h2.1c1.1,0,2.1,0.3,2.7,1c0.7,0.7,1,1.5,1,2.7c0,1.1-0.3,2-1,2.6c-0.7,0.7-1.6,1-2.7,1H71.7z
		 M69.6,75.3v10.4h4.2c1.1,0,2.1-0.2,3-0.6c0.9-0.4,1.5-1,2-1.8s0.7-1.7,0.7-2.7c0-1-0.2-1.9-0.7-2.7c-0.5-0.8-1.1-1.4-2-1.9
		c-0.8-0.4-1.8-0.7-2.9-0.7H69.6z M61,75.3v10.4h6.8v-1.6H63v-3h4.5v-1.6H63v-2.7h4.7v-1.6H61z"/>
</g>
</svg>
