
<svg width="177px" height="62px" viewBox="0 0 177 62" version="1.1" xmlns="http://www.w3.org/2000/svg" xmlns:xlink="http://www.w3.org/1999/xlink">
    <!-- Generator: Sketch 48.2 (47327) - http://www.bohemiancoding.com/sketch -->
    <desc>Created with Sketch.</desc>
    <defs>
        <filter x="-1.1%" y="-11.9%" width="102.2%" height="128.8%" filterUnits="objectBoundingBox" id="filter-1">
            <feOffset dx="0" dy="2" in="SourceAlpha" result="shadowOffsetOuter1"></feOffset>
            <feGaussianBlur stdDeviation="3.5" in="shadowOffsetOuter1" result="shadowBlurOuter1"></feGaussianBlur>
            <feColorMatrix values="0 0 0 0 0.786245748   0 0 0 0 0.786245748   0 0 0 0 0.786245748  0 0 0 0.5 0" type="matrix" in="shadowBlurOuter1" result="shadowMatrixOuter1"></feColorMatrix>
            <feMerge>
                <feMergeNode in="shadowMatrixOuter1"></feMergeNode>
                <feMergeNode in="SourceGraphic"></feMergeNode>
            </feMerge>
        </filter>
        <polygon id="path-2" points="33.5946087 0.113536896 33.5946087 31.897177 0.139543418 31.897177 0.139543418 0.113536896 33.5946087 0.113536896"></polygon>
        <polygon id="path-4" points="0.0439527463 21.9789474 21.5644468 21.9789474 21.5644468 0.234131857 0.0439527463 0.234131857"></polygon>
        <polygon id="path-6" points="0.0162645934 0.0540631579 35.6607851 0.0540631579 35.6607851 47.7107621 0.0162645934 47.7107621"></polygon>
    </defs>
    <g id="Page-1" stroke="none" stroke-width="1" fill="none" fill-rule="evenodd">
        <g id="0.0-鹿樂首頁" transform="translate(-28.000000, -9.000000)">
            <g id="header" filter="url(#filter-1)">
                <g id="XMLID_89_" transform="translate(109.000000, 32.000000)" fill="#40210F" fill-rule="nonzero">
                    <g id="XMLID_383_" transform="translate(31.061947, 0.828571)">
                        <path d="M5.11964602,10.2825714 L5.11964602,11.571 L2.97079646,11.571 C4.14955752,9.77217143 5.38247788,8.01477143 6.68070796,6.30542857 C7.46283186,5.27551429 6.06982301,3.80645714 5.27973451,4.84797143 C4.77159292,5.51745714 4.27300885,6.1944 3.78079646,6.87631429 C3.72743363,6.84897143 3.67247788,6.82245714 3.60955752,6.80257143 C3.01938053,6.6178 2.16716814,6.49434286 2.37265487,5.6202 C2.46026549,5.24651429 2.99070796,4.71705714 3.19938053,4.4486 C3.81663717,3.65317143 4.49442478,2.91408571 5.20646018,2.2098 C6.1319469,1.2934 4.72938053,-0.1624 3.80548673,0.752342857 C2.62433628,1.92145714 0.574247788,3.78408571 0.302654867,5.56882857 C0.0589380531,7.17045714 1.28946903,8.09845714 2.56061947,8.60388571 C1.76734513,9.75228571 0.995575221,10.9164286 0.250088496,12.1021143 C-0.234159292,12.8726857 0.437256637,13.6043143 1.12858407,13.6150857 C1.18274336,13.6233714 1.23610619,13.6324857 1.29584071,13.6324857 L5.91929204,13.6324857 C6.02283186,13.6324857 6.11442478,13.6150857 6.20123894,13.5902286 C6.66557522,13.5529429 7.10283186,13.2264857 7.10283186,12.6017429 L7.10283186,10.2825714 C7.10123894,8.95602857 5.11964602,8.95437143 5.11964602,10.2825714 Z" id="XMLID_384_"></path>
                    </g>
                    <g id="XMLID_381_" transform="translate(48.584071, 0.828571)">
                        <path d="M5.26699115,10.2825714 L5.26699115,11.571 L3.11814159,11.571 C4.29690265,9.77217143 5.52982301,8.01477143 6.8280531,6.30542857 C7.61017699,5.27551429 6.21716814,3.80645714 5.42707965,4.84797143 C4.91893805,5.51745714 4.42035398,6.1944 3.92814159,6.87631429 C3.87477876,6.84897143 3.81982301,6.82245714 3.75690265,6.80257143 C3.16672566,6.6178 2.31451327,6.49434286 2.52,5.6202 C2.60761062,5.24651429 3.1380531,4.71705714 3.34672566,4.4486 C3.9639823,3.65317143 4.64176991,2.91408571 5.35380531,2.2098 C6.27929204,1.2934 4.87672566,-0.1624 3.95283186,0.752342857 C2.77168142,1.92145714 0.72159292,3.78408571 0.45,5.56882857 C0.206283186,7.17045714 1.43681416,8.09845714 2.7079646,8.60388571 C1.91469027,9.75228571 1.14292035,10.9164286 0.397433628,12.1021143 C-0.0868141593,12.8726857 0.58460177,13.6043143 1.2759292,13.6150857 C1.3300885,13.6233714 1.38345133,13.6324857 1.44318584,13.6324857 L6.06663717,13.6324857 C6.17017699,13.6324857 6.26176991,13.6150857 6.34858407,13.5902286 C6.81292035,13.5529429 7.25017699,13.2264857 7.25017699,12.6017429 L7.25017699,10.2825714 C7.24858407,8.95602857 5.26699115,8.95437143 5.26699115,10.2825714 Z" id="XMLID_382_"></path>
                    </g>
                    <g id="XMLID_374_" transform="translate(39.026549, 0.000000)">
                        <g id="XMLID_375_">
                            <g id="XMLID_376_">
                                <path d="M6.55168142,1.93305714 L5.70504425,1.93305714 L5.54893805,1.93305714 C5.38884956,1.25528571 4.91495575,0.630542857 4.17185841,0.711742857 C3.5219469,0.783 3.22725664,1.34642857 3.11734513,1.93968571 L1.47743363,1.94382857 C1.01469027,1.97034286 0.67699115,2.17417143 0.509734513,2.53542857 C0.427699115,2.71274286 0.384690265,2.92568571 0.384690265,3.17094286 L0.384690265,12.4849143 C0.384690265,13.7874286 1.22973451,14.6996857 2.51362832,14.6996857 L6.55247788,14.6996857 C7.80451327,14.6996857 8.68141593,13.7874286 8.68141593,12.4849143 L8.68141593,4.11468571 C8.67982301,2.81217143 7.80371681,1.93305714 6.55168142,1.93305714 Z M2.4499115,6.26482857 L2.4499115,4.79908571 C2.4499115,4.47345714 2.8879646,4.01691429 3.2320354,4.01691429 L5.8619469,4.01691429 C6.2060177,4.01691429 6.61380531,4.47262857 6.61380531,4.79908571 L6.61380531,6.26482857 L6.59787611,7.29142857 L2.46504425,7.29142857 L2.4499115,6.36922857 L2.46504425,6.36922857 C2.45787611,6.3336 2.4499115,6.2988 2.4499115,6.26482857 Z M6.55168142,11.8013429 C6.55168142,12.1592857 6.20681416,12.5503714 5.86274336,12.5503714 L3.23283186,12.5503714 C2.88876106,12.5503714 2.51283186,12.1592857 2.51283186,11.8013429 L2.51283186,10.2055143 L2.49849558,9.34131429 L6.56522124,9.34131429 L6.55168142,10.2055143 L6.55168142,11.8013429 Z" id="XMLID_377_"></path>
                            </g>
                        </g>
                    </g>
                    <g id="XMLID_372_" transform="translate(15.132743, 2.485714)">
                        <path d="M0.649911504,2.25122857 L0.649911504,9.9818 C0.649911504,11.7508 3.27743363,11.4492 3.27743363,9.69428571 L3.27743363,1.96371429 C3.27743363,0.193885714 0.649911504,0.496314286 0.649911504,2.25122857 Z" id="XMLID_373_"></path>
                    </g>
                    <g id="XMLID_370_" transform="translate(0.000000, 0.828571)">
                        <path d="M24.2338938,1.72342857 L14.5887611,1.72342857 L14.5887611,1.49557143 C14.5887611,0.773057143 13.7923009,0.170685714 13.1368142,0.2726 C12.3881416,0.3886 11.9859292,0.981857143 11.9652212,1.72342857 L3.72902655,1.72342857 C2.47699115,1.72342857 1.44318584,2.79808571 1.44318584,4.10142857 L1.44318584,7.71648571 L0.159292035,26.2143429 C0.128230088,26.8987429 0.660265487,27.5168571 1.31814159,27.5168571 C2.00707965,27.5168571 2.57017699,26.9310571 2.63309735,26.2143429 L3.9480531,7.84574286 L3.9480531,4.9474 C3.9480531,4.62177143 4.19814159,4.32845714 4.54300885,4.32845714 L15.2490265,4.32845714 C15.2713274,4.32845714 15.2904425,4.34005714 15.3119469,4.34254286 L15.3119469,4.32845714 L24.2338938,4.32845714 C24.9228319,4.32845714 25.4548673,3.74265714 25.4548673,3.02594286 C25.4548673,2.30922857 24.9228319,1.72342857 24.2338938,1.72342857 Z" id="XMLID_371_"></path>
                    </g>
                    <g id="XMLID_365_" transform="translate(4.778761, 14.914286)">
                        <g id="XMLID_368_">
                            <path d="M6.94752212,9.62137143 L3.56654867,10.0116286 C3.25353982,10.0439429 2.97159292,9.78377143 2.97159292,9.45814286 L2.97159292,6.51174286 C4.26106195,5.93008571 5.55929204,5.36997143 6.87026549,4.84051429 C8.06097345,4.35994286 7.3600885,2.43185714 6.17017699,2.9116 C5.09575221,3.34494286 4.03168142,3.80231429 2.97238938,4.27128571 L2.97238938,2.0648 C2.97238938,1.38122857 2.40849558,0.827742857 1.75141593,0.827742857 C1.09433628,0.827742857 0.530442478,1.38122857 0.530442478,2.0648 L0.530442478,10.5974286 C0.530442478,11.8676286 1.59451327,12.8445143 2.81628319,12.6821143 L6.94831858,12.1940857 C7.63725664,12.1286286 8.16929204,11.5096857 8.16929204,10.7606571 C8.16849558,10.0770857 7.60460177,9.55591429 6.94752212,9.62137143 Z" id="XMLID_369_"></path>
                        </g>
                        <g id="XMLID_366_" transform="translate(9.557522, 0.000000)">
                            <path d="M9.19274336,10.2394857 L3.65176991,10.2394857 C3.30769912,10.2394857 3.02575221,9.94617143 3.02575221,9.58822857 L3.02575221,6.48605714 C4.65132743,5.88368571 6.27610619,5.28131429 7.90168142,4.67894286 C9.1059292,4.23234286 8.40185841,2.30508571 7.20159292,2.75002857 C5.81017699,3.26622857 4.4179646,3.7816 3.02654867,4.2978 L3.02654867,2.09711429 C3.02654867,1.3804 2.46265487,0.826914286 1.80557522,0.826914286 C1.11743363,0.826914286 0.58539823,1.3804 0.58539823,2.09711429 L0.58539823,10.4018857 C0.58539823,11.7044 1.58734513,12.7798857 2.83938053,12.7798857 L9.19433628,12.7798857 C9.88247788,12.7798857 10.4463717,12.1940857 10.4463717,11.5096857 C10.4447788,10.7938 9.88088496,10.2394857 9.19274336,10.2394857 Z" id="XMLID_367_"></path>
                        </g>
                    </g>
                    <g id="XMLID_363_" transform="translate(7.964602, 2.485714)">
                        <path d="M0.304247788,2.16505714 L0.304247788,10.3704 C0.304247788,12.1394 2.93176991,11.8378 2.93176991,10.0828857 L2.93176991,1.87754286 C2.93176991,0.108542857 0.304247788,0.410971429 0.304247788,2.16505714 Z" id="XMLID_364_"></path>
                    </g>
                    <g id="XMLID_350_" transform="translate(59.734513, 15.742857)">
                        <g id="XMLID_359_">
                            <path d="M6.15584071,0.484714286 L1.95769912,0.484714286 C1.30778761,0.484714286 0.779734513,1.04068571 0.779734513,1.72508571 L0.779734513,10.6338857 C0.779734513,11.0920857 1.13097345,11.4649429 1.56424779,11.4649429 C2.00548673,11.4649429 2.36389381,11.0920857 2.36389381,10.6338857 L2.36389381,7.31131429 L6.07061947,11.1641714 C6.34858407,11.4516857 6.73566372,11.4492 7.01362832,11.1600286 C7.29637168,10.8667143 7.38,10.3463714 7.0319469,9.98511429 L3.22566372,6.02951429 L6.15504425,6.02951429 C6.81292035,6.02951429 7.34814159,5.46608571 7.34814159,4.7734 L7.34814159,1.72508571 C7.34814159,1.02991429 6.82486726,0.484714286 6.15584071,0.484714286 Z M5.77911504,2.11782857 L5.77911504,4.3964 C5.77911504,4.41048571 5.76318584,4.42954286 5.73292035,4.42954286 L2.39495575,4.42954286 C2.37982301,4.42954286 2.36309735,4.41214286 2.36309735,4.3964 L2.36309735,2.11782857 C2.36309735,2.088 2.37902655,2.0706 2.39495575,2.0706 L5.73292035,2.0706 C5.76318584,2.06977143 5.77911504,2.08717143 5.77911504,2.11782857 Z" id="XMLID_360_"></path>
                        </g>
                        <g id="XMLID_357_" transform="translate(7.964602, 4.971429)">
                            <path d="M4.92371681,0.169028571 C4.4299115,0.169028571 4.18858407,0.567571429 4.17504425,0.9222 L4.16867257,4.85708571 C4.16867257,4.86951429 4.16867257,4.89022857 4.12168142,4.89022857 L3.69318584,4.89022857 L2.71353982,4.89022857 L2.27070796,4.89022857 C2.23884956,4.89022857 2.23884956,4.86785714 2.23884956,4.85708571 L2.23884956,1.11857143 L2.24522124,1.11857143 L2.24123894,0.942914286 C2.24123894,0.942085714 2.24044248,0.940428571 2.24044248,0.9396 L2.23884956,0.900657143 L2.23884956,0.774714286 L2.23247788,0.774714286 L2.21176991,0.774714286 C2.14566372,0.459857143 1.92265487,0.169028571 1.50132743,0.169028571 C1.08637168,0.169028571 0.864159292,0.449085714 0.793274336,0.758142857 L0.780530973,0.756485714 L0.776548673,0.790457143 L0.757433628,0.791285714 L0.757433628,0.9628 L0.757433628,0.963628571 L0.757433628,1.08791429 L0.756637168,1.11691429 L0.757433628,1.11691429 L0.757433628,5.23408571 C0.757433628,5.92842857 1.28707965,6.49351429 1.93778761,6.49351429 L2.71433628,6.49351429 L3.6939823,6.49351429 L4.15274336,6.49351429 C4.99619469,6.49351429 5.6819469,5.77265714 5.6819469,4.88691429 L5.6819469,0.773057143 L5.6540708,0.773057143 C5.58238938,0.459028571 5.34504425,0.169028571 4.92371681,0.169028571 Z" id="XMLID_358_"></path>
                        </g>
                        <g id="XMLID_353_" transform="translate(19.115044, 4.971429)">
                            <path d="M3.5139823,0.169028571 L1.29902655,0.169028571 C0.648318584,0.169028571 0.119469027,0.734114286 0.119469027,1.42845714 L0.119469027,3.09222857 L0.119469027,3.57114286 L0.119469027,5.23491429 C0.119469027,5.92925714 0.648318584,6.49434286 1.29902655,6.49434286 L3.5139823,6.49434286 C4.35743363,6.49434286 5.04318584,5.77348571 5.04318584,4.88774286 L5.04318584,3.57114286 L5.04318584,3.09222857 L5.04318584,1.77562857 C5.0439823,0.889885714 4.35743363,0.169028571 3.5139823,0.169028571 Z M3.53150442,3.57114286 L3.53150442,4.85625714 C3.53150442,4.86951429 3.53150442,4.8894 3.48451327,4.8894 L1.63353982,4.8894 C1.60168142,4.8894 1.60168142,4.86785714 1.60168142,4.85625714 L1.60168142,3.57114286 L1.60168142,3.09222857 L1.60168142,1.80711429 C1.60168142,1.79551429 1.60168142,1.77397143 1.63353982,1.77397143 L3.48451327,1.77397143 C3.53150442,1.77397143 3.53150442,1.79302857 3.53150442,1.80711429 L3.53150442,3.09222857 L3.53150442,3.57114286 Z" id="XMLID_354_"></path>
                        </g>
                        <g id="XMLID_351_" transform="translate(14.336283, 4.971429)">
                            <path d="M3.73141593,0.120971429 L1.51168142,0.120971429 C0.89920354,0.120971429 0.400619469,0.647114286 0.400619469,1.2934 L0.400619469,5.68648571 C0.400619469,6.12894286 0.734336283,6.47528571 1.15884956,6.47528571 C1.56185841,6.47528571 1.90274336,6.1132 1.90274336,5.68648571 L1.92185841,1.58257143 L3.73141593,1.58257143 C4.11849558,1.58257143 4.43309735,1.25528571 4.43309735,0.8526 C4.43309735,0.455714286 4.11212389,0.120971429 3.73141593,0.120971429 Z" id="XMLID_352_"></path>
                        </g>
                    </g>
                    <g id="XMLID_341_" transform="translate(74.867257, 8.285714)">
                        <g id="XMLID_348_" transform="translate(5.575221, 1.657143)">
                            <path d="M1.49575221,0.834371429 C1.49256637,0.716714286 1.44159292,0.593257143 1.36831858,0.528628571 C1.29345133,0.463171429 1.19548673,0.430857143 1.09831858,0.420914286 C0.951769912,0.406828571 0.731150442,0.509571429 0.694513274,0.671971429 C0.622035398,0.992628571 1.08876106,1.20391429 1.32292035,1.11194286 C1.43840708,1.0672 1.49893805,0.960314286 1.49575221,0.834371429 Z" id="XMLID_349_"></path>
                        </g>
                        <g id="XMLID_346_" transform="translate(5.575221, 4.142857)">
                            <path d="M1.03141593,0.720857143 C1.03699115,0.636342857 1.01389381,0.546857143 0.955752212,0.468971429 C0.829115044,0.298285714 0.478672566,0.238628571 0.328141593,0.408485714 C0.254867257,0.491342857 0.207876106,0.645457143 0.277964602,0.744057143 C0.395044248,0.907285714 0.497787611,1.04565714 0.727168142,1.02908571 C0.908761062,1.01665714 1.02026549,0.877457143 1.03141593,0.720857143 Z" id="XMLID_347_"></path>
                        </g>
                        <g id="XMLID_344_">
                            <path d="M5.84761062,1.76817143 C5.67716814,0.863371429 4.2459292,0.7366 3.56017699,0.7076 C2.61955752,0.668657143 1.34681416,0.877457143 0.661858407,1.60411429 C0.657876106,1.60825714 0.657079646,1.6124 0.653097345,1.61737143 C0.647522124,1.62317143 0.640353982,1.62731429 0.634778761,1.63311429 C0.528849558,1.74497143 0.555132743,1.88831429 0.708053097,1.93802857 C1.40973451,2.16754286 2.13610619,2.02834286 2.85530973,2.26282857 C3.48451327,2.46748571 4.07150442,2.73345714 4.74212389,2.76991429 C5.3259292,2.80222857 5.99017699,2.52382857 5.84761062,1.76817143 Z" id="XMLID_345_"></path>
                        </g>
                        <g id="XMLID_342_" transform="translate(0.000000, 1.657143)">
                            <path d="M4.5820354,1.86842857 C3.98309735,1.55274286 3.34672566,1.48065714 2.70318584,1.33234286 C1.9680531,1.16331429 1.40336283,0.667 0.684955752,0.502942857 C0.528053097,0.467314286 0.437256637,0.578342857 0.475486726,0.729971429 C0.477876106,0.738257143 0.481061947,0.744885714 0.483451327,0.753171429 C0.484247788,0.758971429 0.482654867,0.763114286 0.484247788,0.768914286 C0.730353982,1.75408571 1.73469027,2.59342857 2.57017699,3.04582857 C3.17867257,3.3756 4.48088496,4.00531429 5.06150442,3.30931429 C5.54654867,2.72765714 5.10292035,2.14268571 4.5820354,1.86842857 Z" id="XMLID_343_"></path>
                        </g>
                    </g>
                    <g id="XMLID_332_" transform="translate(82.035398, 13.257143)">
                        <g id="XMLID_339_" transform="translate(6.371681, 0.828571)">
                            <path d="M1.01150442,0.557628571 C0.983628319,0.431685714 0.902389381,0.309057143 0.81,0.256857143 C0.715221239,0.203 0.603716814,0.189742857 0.49619469,0.201342857 C0.335309735,0.218742857 0.118672566,0.380314286 0.113097345,0.563428571 C0.101946903,0.925514286 0.649115044,1.04814286 0.882477876,0.896514286 C0.997964602,0.821942857 1.04097345,0.692685714 1.01150442,0.557628571 Z" id="XMLID_340_"></path>
                        </g>
                        <g id="XMLID_337_" transform="translate(6.371681, 3.314286)">
                            <path d="M1.00433628,0.735771429 C0.993185841,0.6438 0.948584071,0.551828571 0.870530973,0.4814 C0.698495575,0.325628571 0.308230088,0.340542857 0.18159292,0.557628571 C0.120265487,0.662857143 0.101150442,0.840171429 0.197522124,0.930485714 C0.357610619,1.08045714 0.497787611,1.2064 0.740707965,1.1368 C0.934247788,1.08211429 1.02584071,0.907285714 1.00433628,0.735771429 Z" id="XMLID_338_"></path>
                        </g>
                        <g id="XMLID_335_">
                            <path d="M5.91292035,0.882428571 C5.54017699,-0.0546857143 3.97035398,0.130914286 3.22486726,0.254371429 C2.20221239,0.424228571 0.872920354,0.936285714 0.285929204,1.87505714 C0.281946903,1.88085714 0.282743363,1.88582857 0.279557522,1.89162857 C0.274778761,1.89908571 0.26840708,1.90571429 0.263628319,1.91317143 C0.172831858,2.05734286 0.230973451,2.20648571 0.40699115,2.22554286 C1.21141593,2.31502857 1.96646018,2.001 2.79079646,2.09131429 C3.51238938,2.17002857 4.20053097,2.32497143 4.93088496,2.21311429 C5.56486726,2.11534286 6.22433628,1.66542857 5.91292035,0.882428571 Z" id="XMLID_336_"></path>
                        </g>
                        <g id="XMLID_333_" transform="translate(0.000000, 1.657143)">
                            <path d="M4.91415929,1.40608571 C4.20212389,1.2006 3.50123894,1.26605714 2.77566372,1.25197143 C1.94734513,1.2354 1.23530973,0.827742857 0.426106195,0.812 C0.249292035,0.808685714 0.174424779,0.948714286 0.246902655,1.10365714 C0.250884956,1.11194286 0.256460177,1.11857143 0.260442478,1.12685714 C0.262831858,1.13265714 0.262035398,1.13762857 0.265221239,1.14342857 C0.735929204,2.15014286 1.99433628,2.82957143 2.98911504,3.12951429 C3.71389381,3.34825714 5.25026549,3.73437143 5.73132743,2.85194286 C6.13274336,2.11534286 5.53221239,1.58422857 4.91415929,1.40608571 Z" id="XMLID_334_"></path>
                        </g>
                    </g>
                    <g id="XMLID_329_" transform="translate(4.778761, 6.628571)">
                        <g id="XMLID_330_">
                            <path d="M16.6380531,0.710914286 L14.1961062,0.710914286 L14.1642478,0.710914286 L10.5331858,0.710914286 L10.5331858,0.697657143 C10.5116814,0.700142857 10.4917699,0.710914286 10.4702655,0.710914286 L6.87026549,0.710914286 L3.20734513,0.710914286 L1.42327434,0.710914286 C0.76619469,0.710914286 0.234159292,1.2644 0.234159292,1.91565714 C0.234159292,2.59922857 0.76619469,3.1204 1.42327434,3.1204 L3.20734513,3.1204 L6.87026549,3.1204 L10.3914159,3.1204 L10.4710619,3.1204 L14.0543363,3.1204 L14.1650442,3.1204 L15.8869912,3.1204 C16.2310619,3.1204 16.4819469,3.41371429 16.4819469,3.77165714 L16.4819469,5.00871429 C16.4819469,5.36748571 16.2318584,5.65997143 15.8869912,5.65997143 L14.1976991,5.65997143 L14.1650442,5.65997143 L14.0543363,5.65997143 L10.4710619,5.65997143 L10.2313274,5.65997143 L6.87106195,5.65997143 L3.20814159,5.65997143 L3.04725664,5.65997143 L1.4240708,5.65997143 C0.76699115,5.65997143 0.234955752,6.21345714 0.234955752,6.86471429 C0.234955752,7.51597143 0.76699115,8.07028571 1.4240708,8.07028571 L16.6388496,8.07028571 C17.890885,8.07028571 18.9246903,6.99562857 18.9246903,5.69228571 L18.9246903,3.08642857 C18.9230973,1.78557143 17.8900885,0.710914286 16.6380531,0.710914286 Z" id="XMLID_331_"></path>
                        </g>
                    </g>
                    <g id="XMLID_90_" transform="translate(31.061947, 14.914286)">
                        <g id="XMLID_327_" transform="translate(0.000000, 2.485714)">
                            <path d="M23.6540708,0.1624 L1.34044248,0.1624 C-0.240530973,0.1624 -0.242920354,2.62657143 1.34044248,2.62657143 L23.6540708,2.62657143 C25.2342478,2.62657143 25.2366372,0.1624 23.6540708,0.1624 Z" id="XMLID_328_"></path>
                        </g>
                        <g id="XMLID_325_" transform="translate(11.150442, 0.000000)">
                            <path d="M0.161681416,2.37965714 L0.161681416,11.0697143 C0.161681416,13.2414 2.53035398,13.2447143 2.53035398,11.0697143 L2.53035398,2.37965714 C2.53115044,0.207971429 0.161681416,0.203828571 0.161681416,2.37965714 Z" id="XMLID_326_"></path>
                        </g>
                        <g id="XMLID_219_" transform="translate(0.796460, 3.314286)">
                            <path d="M10.2687611,0.903971429 C7.63327434,3.11791429 4.02769912,4.7096 0.887256637,5.95991429 C-0.522477876,6.52085714 0.0892035398,8.90465714 1.51725664,8.33625714 C5.10292035,6.90862857 8.94265487,5.16697143 11.9437168,2.64645714 C13.1304425,1.65051429 11.4451327,-0.0836857143 10.2687611,0.903971429 Z" id="XMLID_323_"></path>
                        </g>
                        <g id="XMLID_91_" transform="translate(11.946903, 3.314286)">
                            <path d="M2.13610619,0.903971429 C4.77159292,3.11791429 8.37716814,4.7096 11.5176106,5.95991429 C12.9273451,6.52085714 12.3156637,8.90465714 10.8876106,8.33625714 C7.3019469,6.90862857 3.46221239,5.16697143 0.461150442,2.64645714 C-0.725575221,1.65051429 0.959734513,-0.0836857143 2.13610619,0.903971429 Z" id="XMLID_218_"></path>
                        </g>
                    </g>
                </g>
                <g id="Page-1" transform="translate(35.000000, 14.000000)">
                    <path d="M14.3360113,28.9029474 C13.8422548,28.6639579 13.2877243,28.8746526 12.8650809,28.5232421 C12.5513765,28.2625263 11.9075765,27.6385263 12.1385678,27.1880842 C12.2931504,26.8864421 12.9765417,26.8159579 13.3172287,26.7831158 C13.9327852,26.7242526 14.4984113,26.9705684 14.7773157,27.5450526 C14.7773157,27.5450526 15.5023157,28.2713684 18.0240548,26.9134737 C18.9512983,26.4140211 20.822933,26.2995789 20.7616548,27.8353263 C20.7303852,28.6179789 20.28202,29.2993263 19.7678374,29.8578947 C19.1832983,30.4927579 18.5750548,31.1064 17.992533,31.7450526 C17.992533,31.7450526 17.519707,32.124 17.7403591,33.1029474 C17.7403591,33.1029474 18.9586113,37.9661053 16.6945939,41.5345263 C16.6945939,41.5345263 16.2273157,46.4014737 15.0294896,46.668 C14.2454809,46.8425684 14.4542809,44.1358737 14.4734461,43.7629895 C14.5163157,42.9290526 14.9001243,41.5873263 14.0334026,41.0408842 C13.108933,40.4580632 11.8808461,40.9413474 10.9704983,41.3094316 C9.83319391,41.7692211 8.77633304,42.3290526 7.77948957,43.0503158 C7.30590696,43.3928842 6.79475043,43.6768421 6.24602,43.8809684 C5.74192435,44.0686737 5.20328087,44.1949895 4.66337652,44.2005474 C3.95703739,44.2081263 3.34602,44.2685053 2.73475043,44.6653895 C2.22460261,44.9965895 1.7810287,45.4260632 1.45597652,45.9424421 C1.29206348,46.2031579 1.1604287,46.4820632 1.05678522,46.7718316 C0.981889565,46.9807579 0.967263478,47.2058526 0.887828696,47.4155368 C0.871185217,47.46 0.851263478,47.5062316 0.813185217,47.5345263 C0.773341739,47.5640842 0.720637391,47.5688842 0.671211304,47.5666105 C0.358515652,47.5519579 0.123741739,47.3036211 0.0639765217,47.0062737 C-0.159449565,45.8989895 0.229654783,44.5797474 0.81015913,43.6318737 C1.42773304,42.6236211 2.66313304,42.1163368 3.7762287,41.9134737 C3.7762287,41.9134737 6.23492435,41.0292632 3.87079391,38.3134737 C3.87079391,38.3134737 1.44362,36.4187368 3.61862,34.9661053 L4.41725478,36.8292632 C4.41725478,36.8292632 4.58520261,37.6503158 5.76209826,37.3767158 C5.76209826,37.3767158 14.1047678,36.5976 15.6178113,32.4291789 C15.6178113,32.4291789 16.83682,30.1135579 14.3360113,28.9029474" id="Fill-1" fill="#E7B021"></path>
                    <g id="Group-5" transform="translate(24.208696, 15.861726)">
                        <mask id="mask-3" fill="white">
                            <use xlink:href="#path-2"></use>
                        </mask>
                        <g id="Clip-4"></g>
                        <path d="M9.19915304,2.72597053 C9.19915304,2.72597053 10.2736661,-0.244976842 13.7682922,0.149633684 C13.7682922,0.149633684 14.0819965,0.172875789 14.1286487,0.423991579 C14.1753009,0.675107368 14.2708748,3.76403368 11.6243096,4.27005474 C11.6243096,4.27005474 11.765527,6.75544421 11.8848052,7.29456 C11.8848052,7.29456 12.3939443,10.1273179 12.9030835,11.1674021 C12.9030835,11.1674021 13.6116922,13.1068547 15.5766313,13.7386863 C15.5766313,13.7386863 18.4841965,14.8454653 25.8774313,13.6684547 C25.8774313,13.6684547 30.1444661,12.8036968 33.0235357,11.65296 C33.0235357,11.65296 33.3135357,11.4725811 33.4325617,11.8381389 C33.4325617,11.8381389 34.2009357,13.2874863 32.3920922,14.5395284 C31.1067617,15.4292968 30.1104226,16.4362863 29.6101096,17.9765811 C29.2895965,18.9631074 29.1299704,20.0014232 29.0825617,21.0359495 C28.9244487,24.4730021 30.0178748,27.8683705 31.5995096,30.8802442 C31.5995096,30.8802442 32.4551357,32.5963705 30.8059183,31.5699284 C30.8059183,31.5699284 24.8140139,28.0702232 22.0390922,23.9652126 C22.0390922,23.9652126 16.1636922,24.7450863 12.3921791,21.8552337 C12.3921791,21.8552337 11.6326313,23.0090021 12.6955443,29.5819705 C12.6955443,29.5819705 13.0922139,32.5400337 11.9962661,31.7159495 C11.9962661,31.7159495 7.07332696,24.6377179 6.4126313,11.3015495 C6.4126313,11.3015495 -0.793490435,12.6963284 0.24117913,9.04933895 C0.24117913,9.04933895 2.95330957,2.90761263 9.19915304,2.72597053" id="Fill-3" fill="#E7B021" mask="url(#mask-3)"></path>
                    </g>
                    <g id="Group-8" transform="translate(0.252174, 25.966989)">
                        <mask id="mask-5" fill="white">
                            <use xlink:href="#path-4"></use>
                        </mask>
                        <g id="Clip-7"></g>
                        <path d="M3.88980783,9.60543158 C3.6512513,9.84290526 3.5256687,10.0978105 3.51532957,10.3666105 C3.48784261,11.0719579 4.23604261,11.8194947 4.52654696,12.0478737 L4.57874696,12.0971368 C5.49489478,13.1496 5.85172087,14.0974737 5.63964261,14.9144842 C5.38040783,15.9138947 4.36969478,16.2875368 4.32682522,16.3032 L4.26680783,16.3191158 C3.52466,16.4542737 2.18536435,16.8347368 1.55543391,17.8632 C0.950973043,18.8504842 0.67686,20.0676632 0.857668696,20.9642526 C0.87406,21.0463579 0.92172087,21.1345263 0.996112174,21.1830316 C1.00821652,21.1352842 1.01855565,21.0867789 1.02889478,21.0372632 C1.05234696,20.9271158 1.07882522,20.8020632 1.12346,20.6767579 C1.24021652,20.3508632 1.38647739,20.0469474 1.55896435,19.7733474 C1.90393826,19.2251368 2.37247739,18.7565053 2.95197304,18.3803368 C3.67899043,17.9081684 4.40298174,17.8619368 5.08233826,17.8546105 C5.5324687,17.8500632 6.02168609,17.7502737 6.53712957,17.5585263 C7.03164261,17.3748632 7.51732957,17.1116211 7.98107739,16.7761263 C8.95598174,16.0705263 10.0259557,15.4864421 11.251773,14.9907789 C12.1699383,14.6196632 13.557147,14.0590737 14.6576339,14.7530526 C15.5573904,15.3202105 15.4224774,16.4661474 15.3243817,17.3031158 C15.3024426,17.4893053 15.2820165,17.6648842 15.2741991,17.8154526 L15.2689035,17.9058947 C15.1627383,19.6930105 15.3430426,20.1886737 15.4184426,20.3144842 C15.9535557,20.0633684 16.5385991,17.6403789 16.7410948,15.5311579 L16.7496687,15.4409684 L16.7983383,15.3641684 C18.9458513,11.9791579 17.8080426,7.27490526 17.7961904,7.22791579 C17.5530948,6.14892632 18.0143209,5.63204211 18.1497383,5.50749474 C18.4566339,5.17149474 18.7703383,4.84231579 19.0837904,4.51338947 C19.3619383,4.2216 19.6398339,3.93006316 19.9126861,3.63372632 C20.4914252,3.00517895 20.783947,2.42261053 20.8066426,1.85317895 C20.8200078,1.5192 20.720147,1.29031579 20.5017643,1.15338947 C20.0481035,0.869431579 19.165747,0.989684211 18.6260948,1.28021053 C15.9893643,2.7 15.0868339,2.00021053 14.9327557,1.84585263 L14.8878687,1.80088421 L14.8601296,1.74378947 C14.6669643,1.34665263 14.2750861,1.1448 13.7760339,1.19330526 C13.0840687,1.25949474 12.9274687,1.36231579 12.8921643,1.40349474 C12.8472774,1.49343158 13.0429643,1.86025263 13.52966,2.26446316 C13.6658339,2.37764211 13.8400861,2.39633684 14.1134426,2.41730526 C14.3603209,2.43625263 14.6404861,2.45772632 14.9234252,2.59465263 C15.7833383,3.01073684 16.3421557,3.59608421 16.5842426,4.33402105 C16.9382948,5.41250526 16.4758078,6.43515789 16.3883035,6.61301053 C14.8197817,10.8632842 6.85234696,11.7250105 6.24536435,11.7846316 C5.73118174,11.8990737 5.30223391,11.8500632 4.97037304,11.6365895 C4.63548609,11.4210947 4.51671217,11.1085895 4.48166,10.9863158 L3.88980783,9.60543158 Z M1.11261652,21.9790737 C1.10076435,21.9790737 1.08916435,21.9788211 1.07706,21.9780632 C0.608773043,21.9563368 0.213868696,21.6008842 0.115773043,21.1143158 C-0.14674,19.8104842 0.354077391,18.3752842 0.910877391,17.4668211 C1.68328609,16.2056842 3.22028609,15.7446316 4.09381652,15.5804211 C4.21284261,15.5296421 4.77014696,15.2651368 4.90909478,14.7181895 C5.04753826,14.1725053 4.74392087,13.4474526 4.0302687,12.6205895 C3.82399043,12.4513263 2.71669478,11.4877895 2.75906,10.3400842 C2.78251217,9.70067368 3.14362522,9.14336842 3.83180783,8.68383158 L4.20981652,8.4312 L5.21069478,10.7862316 C5.22809478,10.8516632 5.35972957,11.2111579 6.09960783,11.0406316 L6.14979043,11.0322947 C6.23073826,11.0247158 14.2718078,10.2266526 15.6849904,6.33258947 L15.7059209,6.28509474 C15.7099557,6.27776842 16.1467209,5.41730526 15.8635296,4.56467368 C15.6867557,4.03237895 15.2598252,3.59936842 14.5943383,3.27701053 C14.44026,3.20248421 14.261973,3.18884211 14.0556948,3.17292632 C13.7364426,3.14842105 13.3748252,3.12063158 13.0464948,2.84778947 C12.5895557,2.46808421 11.8753991,1.72938947 12.2251643,1.04804211 C12.4468252,0.615789474 13.0669209,0.499831579 13.7041643,0.438947368 C14.4836339,0.365178947 15.1458426,0.693347368 15.494347,1.32315789 C15.6368252,1.38858947 16.3756948,1.63162105 18.2680078,0.612505263 C18.9967904,0.219915789 20.1683904,0.0509052632 20.902973,0.510947368 C21.2209643,0.710021053 21.5934252,1.10968421 21.56266,1.88349474 C21.5323991,2.64063158 21.1745643,3.38109474 20.4687296,4.14757895 C20.1928513,4.4472 19.9119296,4.74202105 19.6310078,5.03684211 C19.3167991,5.36677895 19.0020861,5.69646316 18.6946861,6.03347368 L18.6518165,6.07389474 C18.649547,6.07667368 18.37266,6.34395789 18.5320339,7.05258947 C18.5812078,7.24736842 19.7447383,12.0387789 17.48526,15.6933474 C17.3548861,16.9936421 16.8626426,20.7752842 15.5344426,21.0708632 C15.3238774,21.1186105 15.1181035,21.0673263 14.9546948,20.9276211 C14.5444078,20.5774737 14.4084861,19.6318737 14.5136426,17.8611789 L14.5184339,17.7765474 C14.5277643,17.6009684 14.5494513,17.4132632 14.5729035,17.2144421 C14.6735209,16.3602947 14.7136165,15.684 14.2549122,15.3944842 C13.4814948,14.9066526 12.3562948,15.3616421 11.5349643,15.6936 C10.3666426,16.1662737 9.34861652,16.7210526 8.42364261,17.3902737 C7.90492087,17.7659368 7.35871217,18.0617684 6.8006513,18.2691789 C6.2032513,18.4914947 5.62779043,18.6069474 5.09040783,18.6125053 C4.37877304,18.6200842 3.86837304,18.6885474 3.36352087,19.0164632 C2.87657304,19.3322526 2.48494696,19.7230737 2.19872957,20.1775579 C2.05599913,20.4044211 1.93369478,20.6585684 1.83559913,20.9326737 C1.80811217,21.0097263 1.78919913,21.0994105 1.76927739,21.1941474 C1.74406,21.3128842 1.71556435,21.4472842 1.66437304,21.5826947 C1.64293826,21.6400421 1.59199913,21.7746947 1.46137304,21.8719579 C1.36554696,21.9429474 1.24828609,21.9790737 1.11261652,21.9790737 Z" id="Fill-6" fill="#40210F" mask="url(#mask-5)"></path>
                    </g>
                    <g id="Group-11" transform="translate(21.434783, 0.198568)">
                        <mask id="mask-7" fill="white">
                            <use xlink:href="#path-6"></use>
                        </mask>
                        <g id="Clip-10"></g>
                        <path d="M33.8618122,29.6620042 C32.8125165,30.3885726 31.531473,31.4577095 30.9353339,33.2935832 C30.6254122,34.2462568 30.4415774,35.3093305 30.3891252,36.4527411 C30.2441252,39.6033095 31.1055513,42.9807411 32.9456643,46.4837305 C33.0112296,46.6150989 33.0704904,46.7775411 33.1027687,46.9030989 C33.0102209,46.8649516 32.8742991,46.7969937 32.6811339,46.6769937 C32.621873,46.6423832 26.7323513,43.1742568 24.0371165,39.1869726 L23.9059861,38.9932042 L23.6742383,39.0237726 C23.617247,39.0318568 17.9120643,39.7516042 14.3064817,36.9885726 L13.9844557,36.7414989 L13.7610296,37.0807832 C13.6747861,37.2116463 12.9507948,38.5468042 14.0053861,45.06672 C14.10676,45.8248674 14.0903687,46.6423832 13.9761339,46.8927411 C13.9698296,46.8889516 13.963273,46.8851621 13.9557078,46.8803621 C13.5118817,46.2063411 9.09329043,39.1973305 8.47496,26.7170779 L8.45327304,26.2810358 L8.02558609,26.3636463 C6.81565565,26.5970779 3.45997739,26.9671832 2.47372522,25.8897095 C2.19406435,25.5840253 2.13127304,25.1666779 2.28232522,24.6146779 C2.43136,24.2956042 4.15471652,20.7648253 7.72701217,19.2358989 C8.14461217,19.0572884 8.58717739,18.9064674 9.05546435,18.7907621 C9.61150783,18.6535832 10.2026035,18.5654147 10.8320296,18.5426779 C10.8532122,18.54192 10.8733861,18.5396463 10.8948209,18.5391411 L11.1515339,18.5315621 L11.2392904,18.2892884 C11.2420643,18.2817095 11.3257861,18.0598989 11.5171861,17.7552253 C11.9968209,16.9910147 13.1550557,15.7048674 15.424873,15.9620463 C15.424873,15.9620463 15.433447,15.9638147 15.4432817,15.9668463 C15.4571513,16.2780884 15.4702643,18.2066779 14.0656557,19.0241937 C13.8303774,19.16112 13.5597948,19.2705095 13.2380209,19.3318989 L12.9124643,19.3942989 L12.9311252,19.7257516 C12.9313774,19.7277726 12.9316296,19.7325726 12.9316296,19.7348463 C12.9369252,19.8270568 12.954073,20.1198568 12.9785339,20.4940042 C12.9941687,20.7281937 13.0123252,20.9924463 13.0327513,21.2597305 C13.0811687,21.8956042 13.1404296,22.5408253 13.1969165,22.7959832 C13.2180991,22.9132042 13.7163948,25.66512 14.2396557,26.7519411 C14.3281687,26.9815832 15.1141948,28.8806147 17.1267948,29.5273516 C17.2496035,29.5738358 20.2136557,30.6561095 27.6368991,29.4742989 C27.8114035,29.4389305 31.9140209,28.6009516 34.7893078,27.4628463 C34.8546209,27.5969937 35.3082817,28.6605726 33.8618122,29.6620042 M7.21005565,18.2402779 C6.10629043,17.7794779 4.55920348,16.9622147 3.4569513,15.6876884 C2.84114261,14.9757726 2.30224696,14.2012042 1.85463826,13.3849516 C1.37903826,12.5171621 1.05650783,11.5884884 0.89562087,10.6252042 C0.812907826,10.1282779 0.771551304,9.61341474 0.772812174,9.09400421 C0.776846957,7.44154105 1.33087304,6.02074105 2.2931687,5.19589895 C3.01337739,4.57846737 3.93204696,4.27556211 4.75388174,4.38368842 C5.18005565,4.44053053 5.59286435,4.65779368 5.78174261,4.92507789 C5.89345565,5.08272 5.92825565,5.25299368 5.88765565,5.44600421 C5.78754261,5.92448842 5.3091687,6.05206737 4.53322957,6.20490947 C4.16808174,6.27716211 3.79057739,6.35143579 3.48469043,6.50832 C1.8619513,7.33922526 1.18637739,8.84061474 1.58329913,10.7356042 C1.59338609,10.7843621 1.61330783,10.8308463 1.6415513,10.8722779 C1.67509043,10.9210358 1.71190783,10.9672674 1.75225565,11.0102147 C1.81025565,11.0726147 1.88767304,11.1132884 1.97164696,11.12592 C2.57232522,11.21712 3.15484696,11.1092463 3.65566435,10.8141726 C3.87127304,10.6870989 4.04098609,10.5150568 4.19077739,10.3634779 C4.3521687,10.1997726 4.4913687,10.0585516 4.65452522,9.99438316 C4.83407304,9.92364632 4.97579478,9.93703579 5.07464696,10.0355621 C5.20930783,10.1699621 5.24209043,10.4208253 5.15433391,10.6451621 C4.78742087,11.5859621 3.48620348,11.9242358 2.50171652,11.6501305 C2.36125565,11.6117305 2.2099513,11.6566989 2.11437739,11.7673516 C2.01880348,11.8782568 1.9953513,12.0343832 2.05436,12.1682779 C2.55164696,13.2960253 3.36692522,14.4740463 4.23591652,15.3193516 C4.83962087,15.9064674 6.50951652,17.3921937 8.60785565,18.12432 C8.29440348,18.2117305 7.99229913,18.3135411 7.70103826,18.4279832 C7.53662087,18.3698779 7.37245565,18.3082358 7.21005565,18.2402779 M22.7068991,15.5065516 C23.8575687,14.3873937 24.9378817,12.8266358 25.5973165,11.3318147 C25.6563252,11.19792 25.632873,11.0417937 25.5372991,10.9308884 C25.441473,10.8199832 25.2904209,10.7747621 25.14996,10.8136674 C23.7801513,11.1953937 21.964247,10.7153937 21.448047,9.39261474 C21.3131339,9.04650947 21.3688643,8.65467789 21.5839687,8.43994105 C21.7968035,8.22697263 22.08176,8.27749895 22.2827426,8.35657263 C22.5258383,8.45232 22.7303513,8.65973053 22.9472209,8.87952 C23.1512296,9.08642526 23.3625513,9.30015158 23.6364122,9.46183579 C24.290047,9.84709895 25.0198383,9.98250947 25.80536,9.86250947 C25.8893339,9.84987789 25.9664991,9.80920421 26.0247513,9.74705684 C26.0744296,9.69375158 26.1195687,9.63716211 26.160673,9.57754105 C26.1889165,9.53610947 26.2088383,9.48962526 26.2189252,9.44061474 C26.7444557,6.93173053 25.888073,5.02486737 23.7423252,3.92592 C23.3491861,3.72457263 22.85316,3.62680421 22.3730209,3.53206737 C21.2836296,3.31733053 20.6110817,3.13493053 20.4607861,2.41720421 C20.3992557,2.12263579 20.4524643,1.86192 20.6234383,1.62015158 C20.8995687,1.22983579 21.4737687,0.924909474 22.086047,0.843562105 C23.2188122,0.693498947 24.4864904,1.11008842 25.4772817,1.95943579 C26.7931252,3.08718316 27.5509078,5.02309895 27.5559513,7.27076211 C27.5574643,7.97333053 27.5014817,8.66958316 27.3897687,9.34032 C27.172647,10.6428884 26.7361339,11.89872 26.0930904,13.0724463 C25.4903948,14.1718989 24.7641339,15.2157726 23.9344817,16.1750147 C22.4438817,17.8989726 20.3556296,19.0022147 18.8665426,19.6239411 C17.1921078,20.3229726 15.4357165,20.6405305 13.74136,20.5576674 C13.7277426,20.3555621 13.7153861,20.16432 13.7052991,19.9996042 C13.9198991,19.93872 14.1150817,19.8604042 14.2953861,19.7699621 C18.2416557,19.5377937 21.6666817,16.5183411 22.7068991,15.5065516 M35.4653861,27.1228042 C35.36956,26.8575411 35.2006035,26.7466358 35.0735078,26.6998989 C34.8430209,26.6167832 34.6364904,26.6978779 34.547473,26.7436042 C31.7339687,27.8640253 27.5292209,28.7229726 27.5024904,28.7287832 C20.334447,29.8696674 17.4225948,28.8288253 17.3766991,28.8121516 C15.6192991,28.2470147 14.9490209,26.4881937 14.9427165,26.47152 L14.9270817,26.4351411 C14.4471948,25.4544253 13.9463774,22.6893726 13.93856,22.6469305 C13.893673,22.4440674 13.8419774,21.8998989 13.7963339,21.3158147 C13.9531861,21.3221305 14.1097861,21.3299621 14.2673948,21.3299621 C15.8966904,21.3299621 17.56356,20.9889095 19.1575513,20.3234779 C20.7217861,19.6704253 22.9192296,18.5065516 24.50616,16.6714358 C25.3708643,15.67152 26.1278904,14.5834358 26.7563078,13.4372463 C27.4404557,12.1882358 27.9047078,10.8518147 28.1359513,9.46512 C28.2547252,8.75269895 28.3139861,8.01400421 28.312473,7.26899368 C28.3069252,4.80027789 27.45256,2.65493053 25.969273,1.38343579 C24.8006991,0.382004211 23.3491861,-0.0896589474 21.9864383,0.0922357895 C21.3413774,0.177877895 20.4819687,0.509330526 20.0061165,1.18234105 C19.7151078,1.59362526 19.6165078,2.07438316 19.7206557,2.57257263 C19.9844296,3.83345684 21.227647,4.07850947 22.2270122,4.27581474 C22.6756296,4.36423579 23.0990296,4.44760421 23.3981078,4.60069895 C25.1903078,5.51876211 25.8999252,7.04389895 25.5082991,9.13543579 C24.9678904,9.18293053 24.4693426,9.07328842 24.0202209,8.80853053 C23.8313426,8.69712 23.6631426,8.52684632 23.48536,8.34646737 C23.2349513,8.09307789 22.9512557,7.80558316 22.5596296,7.65122526 C21.9859339,7.42537263 21.4356904,7.51733053 21.04936,7.90360421 C20.6214209,8.33130947 20.4986122,9.04069895 20.743473,9.66848842 C21.3302817,11.1724042 23.0513687,11.8161095 24.5901339,11.6809516 C23.9675165,12.8801937 23.0970122,14.0705937 22.1798557,14.9628884 C21.2927078,15.8258779 18.5808296,18.2332042 15.3721687,18.8713516 C16.2436817,17.7238989 16.2550296,16.1669305 16.1849252,15.7889937 C16.106247,15.3645726 15.7055426,15.2228463 15.4952296,15.2074358 C12.376847,14.85552 11.0156122,17.0241095 10.6411339,17.7789726 C7.91765565,17.6291621 5.49678609,15.48912 4.76270783,14.7754358 C4.12218609,14.1521937 3.51268174,13.3326568 3.05902087,12.4966989 C4.20414261,12.5406568 5.42567304,12.0316042 5.85916,10.9210358 C6.05585565,10.4167832 5.95523826,9.84533053 5.60900348,9.49897263 C5.29706435,9.18697263 4.83684696,9.10840421 4.37763826,9.28903579 C4.0659513,9.41181474 3.84630783,9.63438316 3.65263826,9.83067789 C3.52402957,9.96103579 3.40298609,10.0838147 3.27210783,10.1608674 C2.97403826,10.3364463 2.64369043,10.41552 2.28888174,10.3975832 C2.03494261,8.91766737 2.55240348,7.83665684 3.82890783,7.18309895 C4.04048174,7.07472 4.35090783,7.01358316 4.67923826,6.94865684 C5.4541687,6.79581474 6.41797739,6.60583579 6.62803826,5.60137263 C6.71176,5.20221474 6.63232522,4.81695158 6.39931652,4.48701474 C6.02584696,3.95876211 5.35582087,3.69905684 4.85349043,3.63261474 C3.8069687,3.49341474 2.69513391,3.85341474 1.80117739,4.61989895 C0.671438261,5.58848842 0.0208295652,7.21872 0.0162904348,9.09248842 C0.0150295652,9.65383579 0.0599165217,10.2113937 0.149438261,10.7500042 L0.149438261,10.7502568 C0.324446957,11.79792 0.674968696,12.8071832 1.19167304,13.7497516 C1.66449913,14.6127411 2.23441217,15.4317726 2.88502087,16.1838568 C4.02762087,17.50512 5.5817687,18.3602779 6.74605565,18.8640253 C3.2211687,20.7137937 1.6009513,24.2824674 1.5797687,24.3304674 L1.56211652,24.3799832 C1.32683826,25.2083621 1.44611652,25.8886989 1.91642087,26.4025516 C3.15711652,27.7571621 6.50169913,27.3779621 7.74214261,27.18192 C8.48353391,40.2020463 13.3214904,47.2959411 13.3706643,47.3666779 L13.4054643,47.4164463 L13.4538817,47.4530779 C13.8583687,47.7574989 14.1599687,47.6940884 14.3427948,47.58672 C14.9586035,47.2252042 14.8655513,45.7894989 14.7535861,44.9555621 C14.0394296,40.5395621 14.1556817,38.6387621 14.2845426,37.9048674 C17.727473,40.2209937 22.4332904,39.9132884 23.5410904,39.8013726 C26.37956,43.8460042 32.0559948,47.1890779 32.2910209,47.3262568 C32.6004383,47.5187621 32.96256,47.7107621 33.2782817,47.7107621 C33.4285774,47.7107621 33.5687861,47.6673095 33.68756,47.5589305 C34.0698557,47.2092884 33.810873,46.5231411 33.6187165,46.1381305 C31.8386209,42.7485726 31.0061948,39.5014989 31.1448904,36.4878568 C31.1943165,35.4121516 31.3657948,34.4162779 31.6545339,33.5282779 C32.0706209,32.2469305 32.8594209,31.2773305 34.2917687,30.2857516 C35.9165252,29.1610358 35.7763165,27.7427621 35.4653861,27.1228042" id="Fill-9" fill="#40210F" mask="url(#mask-7)"></path>
                    </g>
                </g>
            </g>
        </g>
    </g>
</svg>
