<svg width="98" height="40" viewBox="0 0 98 40" fill="none" xmlns="http://www.w3.org/2000/svg">
<g clip-path="url(#clip0_20_1857)">
<path d="M60.1859 25.842C60.9035 27.1439 60.4932 28.7356 59.2712 29.4181L59.3298 39.4905H62.2035L62.0434 16.0957L36.7563 16.1642L36.9164 39.559L39.7686 39.5515L39.7175 32.2274C39.3906 32.0109 39.1122 31.7018 38.86 31.2681C38.1202 29.9902 38.4901 28.3964 39.6859 27.6872L39.626 19.1538L45.5618 19.138C45.7776 18.6412 46.1496 18.2472 46.7602 17.9183C48.0743 17.2064 49.6965 17.6306 50.3811 18.8673C50.4275 18.9516 50.4692 19.038 50.5096 19.1257L59.21 19.103L59.243 24.7991C59.6102 25.0239 59.9169 25.3583 60.1859 25.842Z" fill="black"/>
<path d="M96.3557 16.612L95.3469 17.165C93.5535 18.1526 91.6917 19.1674 89.7615 20.2093C88.4689 20.9103 86.4043 22.0368 85.1796 22.7062L85.1594 19.8071L82.0544 14.0268L82.2649 13.1408L91.8148 13.1161L91.7939 10.1074L70.581 10.1622L70.6012 13.171L78.5713 13.1504L66.6205 18.495L66.642 21.6325L79.5653 15.9145L81.7847 19.7352L66.6871 27.9062L66.7093 31.2938L67.7181 30.7299C70.1889 29.352 72.7876 27.9583 75.4421 26.5872C77.7959 25.371 80.065 24.1602 82.1929 22.9844L82.2144 26.2049L66.6084 36.5363L66.6319 39.9993L82.24 29.6692L82.2857 36.3636L75.5228 36.3815L77.0205 39.3847L85.2926 39.3628L85.2038 26.074L86.1144 25.5368L92.9379 39.3922L96.1956 39.3833L95.737 38.4241C94.4531 35.7285 93.8418 34.4677 92.4698 31.7091C91.3729 29.5055 89.4838 25.5957 88.7763 24.1287L96.3759 19.9976L96.3557 16.612Z" fill="black"/>
<path d="M66.7195 13.1936L69.7062 13.186L69.6584 6.19422L92.7564 6.13392L92.8042 13.1257L95.926 13.1175L95.8574 3.11904L83.6443 3.15056L82.6006 0L79.5446 0.00822242L80.5884 3.15878L66.6509 3.19441L66.7195 13.1936Z" fill="black"/>
<path d="M0.0209708 13.7409L9.38189 13.7162C8.97837 14.3007 8.55671 14.9345 8.11889 15.6128C7.46586 16.6215 6.88009 17.4855 6.33265 18.2495L1.53886 18.2618L1.55972 21.2706L4.21418 21.2637L0.33571 27.1523L3.84497 27.1434L4.04673 26.8652C4.66545 26.0169 5.3474 25.0152 6.07642 23.8894C6.69515 22.9301 7.29504 22.0448 7.86131 21.2541L11.8359 21.2438L8.93197 26.0087L8.90776 27.7848L0.271149 30.381L0.291329 33.411L1.14208 33.1917C2.60281 32.8141 4.07228 32.3694 5.50948 31.8795C6.63596 31.4931 7.78195 31.1395 8.92256 30.825L8.96223 36.615L3.68692 36.6287L5.18397 39.6346L11.9698 39.6168L11.9025 30.0014L18.1039 27.8293L18.0837 24.8288L17.237 25.0398C16.1537 25.3182 15.0893 25.6682 14.0506 26.0875C13.3545 26.3671 12.6658 26.6103 11.9953 26.8131L16.9115 18.4941L17.003 18.3393L17.0238 18.2228L9.89503 18.2413C10.2985 17.6568 10.7216 17.0223 11.1587 16.3453C11.7855 15.3771 12.3847 14.4912 12.9436 13.7087L16.9283 13.6977L16.9082 10.6904L15.1152 10.6952L19.3824 4.6736L17.0218 18.2228H17.0702L17.003 18.3393L16.9768 18.4941L16.6916 20.1304L19.5532 20.1228L19.6608 19.5795C19.8603 18.564 20.0601 17.5296 20.26 16.4762L21.3206 19.3047C21.9931 21.0951 22.5635 22.6745 23.0221 24.0031L16.6734 39.575L19.9016 39.5661L20.7799 37.4989C21.4484 35.9229 22.125 34.3305 22.7524 32.834C23.3799 31.3375 24.0154 29.8102 24.6658 28.2726L28.779 39.573L31.9755 39.5647L31.6581 38.6678C30.921 36.5821 30.0243 34.1302 28.9679 31.3122C27.9706 28.6577 27.0976 26.2753 26.3727 24.2272L30.8154 13.5086L30.7979 6.33796L40.6968 6.31261L34.9454 14.8502L64.0349 14.7742L59.11 7.8872L55.6397 7.89611L56.4589 8.97667C56.936 9.61269 57.3768 10.2762 57.7791 10.9638C57.9916 11.3269 58.2081 11.675 58.4247 12.0039L40.2698 12.0512C40.8078 11.183 41.3774 10.306 41.9646 9.43713C42.2712 8.98215 42.5698 8.56486 42.8826 8.12496C43.3157 7.51856 43.7266 6.94094 44.124 6.30507L64.6994 6.25163L64.6785 3.22167L51.1412 3.2573L50.2878 0.125924L47.1585 0.134146L47.5075 1.0482C47.5835 1.24623 47.7523 1.91909 47.9023 2.51316C47.9696 2.77559 48.0328 3.03255 48.0933 3.26688L22.659 3.32787L23.1768 0.107422L20.18 0.115644L19.5868 3.52041L16.6418 3.52795L15.6438 3.55262L10.238 3.567L10.2152 0.193758L7.22913 0.20198L7.252 3.57454L1.30483 3.58962L1.325 6.5997L7.27284 6.58395L7.30109 10.7171L0.00146484 10.7363L0.0209708 13.7409ZM20.9649 12.6747C21.3603 10.4917 21.7571 8.38694 22.1552 6.36057L27.6767 6.34618L27.7217 13.0372C27.1192 14.4679 26.5381 15.8687 25.9786 17.2395C25.6087 18.1426 25.23 19.0583 24.8427 19.9865L22.396 13.6141L20.792 13.6182L20.9649 12.6747ZM14.4312 6.55928L11.4197 10.7006H10.2851L10.2569 6.5675L14.4312 6.55928Z" fill="black"/>
<path d="M57.1513 36.3572C58.4519 35.6192 58.9335 34.0275 58.2273 32.8065C56.9455 30.5905 53.3037 29.7162 49.664 28.8398C48.588 32.3933 47.5173 35.9474 48.8012 38.1586C49.51 39.3817 51.1389 39.7722 52.4416 39.0336C53.6198 38.3655 53.8868 37.4768 53.835 36.0358C55.0611 36.8087 55.9723 37.0259 57.1513 36.3572Z" fill="#6BC5EF"/>
<path d="M46.7597 17.9175C46.149 18.2478 45.7771 18.6404 45.5612 19.1372C45.3555 19.612 45.2922 20.1821 45.303 20.8858C44.0877 20.0896 43.1818 19.8512 41.9915 20.498C40.676 21.2086 40.1608 22.7893 40.8441 24.0282C42.0816 26.2647 45.7038 27.215 49.3247 28.1627C50.4277 24.7675 51.5306 21.371 50.509 19.1249C50.4687 19.0372 50.427 18.9508 50.3806 18.8665C49.6946 17.6298 48.0738 17.2056 46.7597 17.9175Z" fill="#E86DA0"/>
<path d="M38.8592 31.2669C39.11 31.6999 39.3898 32.0089 39.7166 32.2261C40.2755 32.5961 40.9702 32.6928 41.8862 32.6633C41.1148 33.8809 40.8983 34.7826 41.5775 35.9571C42.3261 37.2494 43.9314 37.7345 45.1601 37.0369C47.3855 35.7727 48.2537 32.1631 49.1213 28.5562C45.5367 27.4763 41.9508 26.3965 39.7261 27.6654L39.685 27.6901C38.4893 28.3952 38.1194 29.9924 38.8592 31.2669Z" fill="#C4D613"/>
<path d="M59.2694 29.4173C60.4914 28.7321 60.9016 27.1404 60.184 25.8413C59.915 25.3575 59.6104 25.0231 59.2425 24.7977C58.7085 24.4709 58.0454 24.3743 57.1852 24.3866C57.9822 23.1854 58.2189 22.2878 57.5639 21.1017C56.8416 19.793 55.2443 19.2764 53.9994 19.9499C51.7478 21.1668 50.807 24.758 49.8647 28.3477C53.4291 29.4996 56.9882 30.6534 59.2411 29.4345L59.2694 29.4173Z" fill="#F3AC00"/>
</g>
<defs>
<clipPath id="clip0_20_1857">
<rect width="98" height="40" fill="white"/>
</clipPath>
</defs>
</svg>
